<?xml version="1.0" encoding="utf-8"?>
<!-- Generator: Adobe Illustrator 22.1.0, SVG Export Plug-In . SVG Version: 6.00 Build 0)  -->
<svg version="1.1" xmlns="http://www.w3.org/2000/svg" xmlns:xlink="http://www.w3.org/1999/xlink" x="0px" y="0px"
	 viewBox="0 0 1000 1000" style="enable-background:new 0 0 1000 1000;" xml:space="preserve">
<style type="text/css">
	.st0{display:none;}
	.st1{display:inline;opacity:0.47;fill:#B3B3B3;}
	.st2{display:inline;opacity:0.47;fill:#ADFFF5;}
	.st3{display:inline;}
	.st4{fill:#003D7A;}
	.st5{fill:#00A8BB;}
	.st6{fill:#495D61;}
	.st7{fill:#FFE169;}
	.st8{fill:#FBF8CD;}
</style>
<g id="Layer_1" class="st0">
	
		<ellipse transform="matrix(0.6099 -0.7925 0.7925 0.6099 -8.0178 540.014)" class="st1" cx="544.5" cy="278.2" rx="244.9" ry="210.3"/>
	
		<ellipse transform="matrix(0.6099 -0.7925 0.7925 0.6099 -17.7554 589.9147)" class="st2" cx="590.3" cy="313" rx="244.9" ry="260.6"/>
	<g class="st3">
		<g>
			<path class="st4" d="M410.8,550.8c-62-47.7-105.7-119-116.4-202.6c-10.3-80.7,11.4-160.6,61.1-224.9C405.2,59,477,17.8,557.7,7.5
				c166.6-21.3,319.4,96.8,340.8,263.4l0,0c21.3,166.6-96.8,319.4-263.4,340.8C552.1,622.3,472.4,598.3,410.8,550.8z M728.5,138
				C684.6,104.2,628,87.1,568.9,94.7c-57.4,7.4-108.5,36.6-143.9,82.4c-35.4,45.8-50.8,102.6-43.5,160
				c7.4,57.4,36.6,108.5,82.4,143.9c0.1,0.1,0.2,0.2,0.4,0.3c45.7,35.2,102.4,50.5,159.6,43.2c118.5-15.2,202.5-123.9,187.4-242.4
				C803.7,222.7,772.6,171.9,728.5,138z"/>
		</g>
	</g>
	<g class="st3">
		<path class="st4" d="M395.1,472.2L71.9,881.8c0,0-41.4,53.2,6.6,91.3s89.9-14.6,89.9-14.6l324.5-408.6L395.1,472.2z"/>
	</g>
</g>
<g id="Layer_2">
	<g>
		<path class="st5" d="M635.1,832.3c-0.2-36.4,28.9-83.4,28.9-83.4H357.5c0,0,36.5,45,44.1,83.4H635.1z"/>
		<path class="st6" d="M401.6,844.9c0,0,1.1,139.1,116.8,139.1c115.7,0,116.8-139.1,116.8-139.1H401.6z"/>
		<path class="st7" d="M670.1,714.7C754.6,583,835.6,406.3,835.6,311.3c0-163.6-145.4-296.2-324.8-296.2
			C331.4,15.1,186,147.7,186,311.3c0,94.9,90.7,271.7,177.6,403.3H670.1z"/>
		<path class="st8" d="M775.4,236c0,71.2-62.8,128.9-140.3,128.9c-77.5,0-140.3-57.7-140.3-128.9c0-71.2,62.8-129,140.3-129
			C712.6,107,775.4,164.7,775.4,236z"/>
	</g>
</g>
</svg>
