<?xml version="1.0" encoding="utf-8"?>
<!-- Generator: Adobe Illustrator 23.0.1, SVG Export Plug-In . SVG Version: 6.00 Build 0)  -->
<svg version="1.1" id="Layer_1" xmlns="http://www.w3.org/2000/svg" xmlns:xlink="http://www.w3.org/1999/xlink" x="0px" y="0px"
	 viewBox="0 0 128.2 47.7" style="enable-background:new 0 0 128.2 47.7;" xml:space="preserve">
<style type="text/css">
	.st0{fill:none;stroke:#9CD30B;stroke-width:0.8528;stroke-miterlimit:10;}
	.st1{clip-path:url(#SVGID_2_);fill:none;stroke:#9CD30B;stroke-width:0.8528;stroke-miterlimit:10;}
	.st2{clip-path:url(#SVGID_5_);fill:none;stroke:#9CD30B;stroke-width:0.8528;stroke-miterlimit:10;}
	.st3{clip-path:url(#SVGID_7_);fill:none;stroke:#9CD30B;stroke-width:0.8528;stroke-miterlimit:10;}
	.st4{clip-path:url(#SVGID_9_);fill:none;stroke:#9CD30B;stroke-width:0.8528;stroke-miterlimit:10;}
	.st5{clip-path:url(#SVGID_11_);fill:none;stroke:#9CD30B;stroke-width:0.8528;stroke-miterlimit:10;}
	.st6{clip-path:url(#SVGID_13_);fill:none;stroke:#9CD30B;stroke-width:0.8528;stroke-miterlimit:10;}
	.st7{clip-path:url(#SVGID_15_);fill:none;stroke:#9CD30B;stroke-width:0.8528;stroke-miterlimit:10;}
	.st8{clip-path:url(#SVGID_17_);fill:none;stroke:#9CD30B;stroke-width:0.8528;stroke-miterlimit:10;}
	.st9{clip-path:url(#SVGID_19_);fill:none;stroke:#9CD30B;stroke-width:0.8528;stroke-miterlimit:10;}
	.st10{clip-path:url(#SVGID_21_);fill:none;stroke:#9CD30B;stroke-width:0.8528;stroke-miterlimit:10;}
	.st11{clip-path:url(#SVGID_23_);fill:none;stroke:#9CD30B;stroke-width:0.8528;stroke-miterlimit:10;}
</style>
<g>
	<polygon class="st0" points="50,47.7 34.4,34 86.4,1 91,36.5 126.9,36.5 122,47.1 	"/>
	<g>
		<g>
			<defs>
				<polygon id="SVGID_1_" points="50,47.7 34.4,34 86.4,1 91,36.5 126.9,36.5 122,47.1 				"/>
			</defs>
			<clipPath id="SVGID_2_">
				<use xlink:href="#SVGID_1_"  style="overflow:visible;"/>
			</clipPath>
			<polygon class="st1" points="74.7,35.2 91,36.5 81.4,47.5 			"/>
		</g>
		<g>
			<defs>
				<polygon id="SVGID_4_" points="50,47.7 34.4,34 86.4,1 91,36.5 126.9,36.5 122,47.1 				"/>
			</defs>
			<clipPath id="SVGID_5_">
				<use xlink:href="#SVGID_4_"  style="overflow:visible;"/>
			</clipPath>
			<polygon class="st2" points="74.7,35.2 50,47.7 47.5,31.6 			"/>
		</g>
		<g>
			<defs>
				<polygon id="SVGID_6_" points="50,47.7 34.4,34 86.4,1 91,36.5 126.9,36.5 122,47.1 				"/>
			</defs>
			<clipPath id="SVGID_7_">
				<use xlink:href="#SVGID_6_"  style="overflow:visible;"/>
			</clipPath>
			<polygon class="st3" points="74.7,35.2 86.4,1 66,24.2 			"/>
		</g>
		<g>
			<defs>
				<polygon id="SVGID_8_" points="50,47.7 34.4,34 86.4,1 91,36.5 126.9,36.5 122,47.1 				"/>
			</defs>
			<clipPath id="SVGID_9_">
				<use xlink:href="#SVGID_8_"  style="overflow:visible;"/>
			</clipPath>
			<polyline class="st4" points="47.5,31.6 59.2,18.2 66,24.2 47.5,31.6 37,32.3 50,47.7 			"/>
		</g>
		<g>
			<defs>
				<polygon id="SVGID_10_" points="50,47.7 34.4,34 86.4,1 91,36.5 126.9,36.5 122,47.1 				"/>
			</defs>
			<clipPath id="SVGID_11_">
				<use xlink:href="#SVGID_10_"  style="overflow:visible;"/>
			</clipPath>
			<polyline class="st5" points="126.9,36.5 81.9,47.2 99.1,36.5 102,42.5 122,47.1 			"/>
		</g>
		<g>
			<defs>
				<polygon id="SVGID_12_" points="50,47.7 34.4,34 86.4,1 91,36.5 126.9,36.5 122,47.1 				"/>
			</defs>
			<clipPath id="SVGID_13_">
				<use xlink:href="#SVGID_12_"  style="overflow:visible;"/>
			</clipPath>
			<polyline class="st6" points="89.7,26.1 74.7,35.2 69.3,47.6 			"/>
		</g>
		<g>
			<defs>
				<polygon id="SVGID_14_" points="50,47.7 34.4,34 86.4,1 91,36.5 126.9,36.5 122,47.1 				"/>
			</defs>
			<clipPath id="SVGID_15_">
				<use xlink:href="#SVGID_14_"  style="overflow:visible;"/>
			</clipPath>
			<line class="st7" x1="66" y1="24.2" x2="74.6" y2="8.5"/>
		</g>
	</g>
	<g>
		<path class="st0" d="M18.7,47.2"/>
		<path class="st0" d="M11.8,47.1"/>
		<g>
			<g>
				<defs>
					<polygon id="SVGID_16_" points="11.7,12.9 1.2,46.9 49.3,47.7 					"/>
				</defs>
				<clipPath id="SVGID_17_">
					<use xlink:href="#SVGID_16_"  style="overflow:visible;"/>
				</clipPath>
				<polyline class="st8" points="1.2,46.9 11.9,40 8.4,23.6 18.9,34.4 11.7,12.9 				"/>
			</g>
			<g>
				<defs>
					<polygon id="SVGID_18_" points="11.7,12.9 1.2,46.9 49.3,47.7 					"/>
				</defs>
				<clipPath id="SVGID_19_">
					<use xlink:href="#SVGID_18_"  style="overflow:visible;"/>
				</clipPath>
				<polyline class="st9" points="20.8,21.3 18.9,34.4 11.9,40 29.3,47.4 18.9,34.4 49.3,47.7 				"/>
			</g>
			<g>
				<defs>
					<polygon id="SVGID_20_" points="11.7,12.9 1.2,46.9 49.3,47.7 					"/>
				</defs>
				<clipPath id="SVGID_21_">
					<use xlink:href="#SVGID_20_"  style="overflow:visible;"/>
				</clipPath>
				<line class="st10" x1="36.9" y1="36.2" x2="18.9" y2="34.4"/>
			</g>
			<g>
				<defs>
					<polygon id="SVGID_22_" points="11.7,12.9 1.2,46.9 49.3,47.7 					"/>
				</defs>
				<clipPath id="SVGID_23_">
					<use xlink:href="#SVGID_22_"  style="overflow:visible;"/>
				</clipPath>
				<polyline class="st11" points="7.8,47 11.9,40 3.9,38.2 				"/>
			</g>
			<g>
				<polygon id="SVGID_3_" class="st0" points="11.7,12.9 1.2,46.9 49.3,47.7 				"/>
			</g>
		</g>
		<polygon class="st0" points="11.7,12.9 1.2,46.9 49.3,47.7 		"/>
	</g>
</g>
</svg>
