<?xml version="1.0" encoding="utf-8"?>
<!-- Generator: Adobe Illustrator 23.0.1, SVG Export Plug-In . SVG Version: 6.00 Build 0)  -->
<svg version="1.1" id="Layer_1" xmlns="http://www.w3.org/2000/svg" xmlns:xlink="http://www.w3.org/1999/xlink" x="0px" y="0px"
	 viewBox="0 0 128.2 47.6" style="enable-background:new 0 0 128.2 47.6;" xml:space="preserve">
<style type="text/css">
	.st0{fill:none;stroke:#2B9AD1;stroke-width:0.8528;stroke-miterlimit:10;}
	.st1{clip-path:url(#SVGID_4_);fill:none;stroke:#2B9AD1;stroke-width:0.8528;stroke-miterlimit:10;}
	.st2{clip-path:url(#SVGID_6_);fill:none;stroke:#2B9AD1;stroke-width:0.8528;stroke-miterlimit:10;}
	.st3{clip-path:url(#SVGID_8_);fill:none;stroke:#2B9AD1;stroke-width:0.8528;stroke-miterlimit:10;}
	.st4{clip-path:url(#SVGID_10_);fill:none;stroke:#2B9AD1;stroke-width:0.8528;stroke-miterlimit:10;}
	.st5{clip-path:url(#SVGID_12_);fill:none;stroke:#2B9AD1;stroke-width:0.8528;stroke-miterlimit:10;}
	.st6{clip-path:url(#SVGID_14_);fill:none;stroke:#2B9AD1;stroke-width:0.8528;stroke-miterlimit:10;}
	.st7{clip-path:url(#SVGID_16_);fill:none;stroke:#2B9AD1;stroke-width:0.8528;stroke-miterlimit:10;}
	.st8{fill:none;stroke:#2B9AD1;stroke-miterlimit:10;}
	.st9{clip-path:url(#SVGID_18_);fill:none;stroke:#2B9AD1;stroke-width:0.8528;stroke-miterlimit:10;}
	.st10{clip-path:url(#SVGID_20_);fill:none;stroke:#2B9AD1;stroke-width:0.8528;stroke-miterlimit:10;}
	.st11{clip-path:url(#SVGID_22_);fill:none;stroke:#2B9AD1;stroke-width:0.8528;stroke-miterlimit:10;}
	.st12{clip-path:url(#SVGID_24_);fill:none;stroke:#2B9AD1;stroke-width:0.8528;stroke-miterlimit:10;}
</style>
<g>
	<polygon class="st0" points="78,47.6 93.7,33.9 41.6,0.9 37,36.4 1.2,36.4 6,47 	"/>
	<g>
		<g>
			<defs>
				<polygon id="SVGID_2_" points="78,47.6 93.7,33.9 41.6,0.9 37,36.4 1.2,36.4 6,47 				"/>
			</defs>
			<clipPath id="SVGID_4_">
				<use xlink:href="#SVGID_2_"  style="overflow:visible;"/>
			</clipPath>
			<polygon class="st1" points="53.3,35.1 37,36.4 46.6,47.4 			"/>
		</g>
		<g>
			<defs>
				<polygon id="SVGID_5_" points="78,47.6 93.7,33.9 41.6,0.9 37,36.4 1.2,36.4 6,47 				"/>
			</defs>
			<clipPath id="SVGID_6_">
				<use xlink:href="#SVGID_5_"  style="overflow:visible;"/>
			</clipPath>
			<polygon class="st2" points="53.3,35.1 78,47.6 80.5,31.5 			"/>
		</g>
		<g>
			<defs>
				<polygon id="SVGID_7_" points="78,47.6 93.7,33.9 41.6,0.9 37,36.4 1.2,36.4 6,47 				"/>
			</defs>
			<clipPath id="SVGID_8_">
				<use xlink:href="#SVGID_7_"  style="overflow:visible;"/>
			</clipPath>
			<polygon class="st3" points="53.3,35.1 41.6,0.9 62,24.1 			"/>
		</g>
		<g>
			<defs>
				<polygon id="SVGID_9_" points="78,47.6 93.7,33.9 41.6,0.9 37,36.4 1.2,36.4 6,47 				"/>
			</defs>
			<clipPath id="SVGID_10_">
				<use xlink:href="#SVGID_9_"  style="overflow:visible;"/>
			</clipPath>
			<polyline class="st4" points="80.5,31.5 68.8,18.1 62,24.1 80.5,31.5 91.1,32.2 78,47.6 			"/>
		</g>
		<g>
			<defs>
				<polygon id="SVGID_11_" points="78,47.6 93.7,33.9 41.6,0.9 37,36.4 1.2,36.4 6,47 				"/>
			</defs>
			<clipPath id="SVGID_12_">
				<use xlink:href="#SVGID_11_"  style="overflow:visible;"/>
			</clipPath>
			<polyline class="st5" points="1.2,36.4 46.1,47.1 29,36.4 26,42.4 6,47 			"/>
		</g>
		<g>
			<defs>
				<polygon id="SVGID_13_" points="78,47.6 93.7,33.9 41.6,0.9 37,36.4 1.2,36.4 6,47 				"/>
			</defs>
			<clipPath id="SVGID_14_">
				<use xlink:href="#SVGID_13_"  style="overflow:visible;"/>
			</clipPath>
			<polyline class="st6" points="38.3,26 53.3,35.1 58.7,47.5 			"/>
		</g>
		<g>
			<defs>
				<polygon id="SVGID_15_" points="78,47.6 93.7,33.9 41.6,0.9 37,36.4 1.2,36.4 6,47 				"/>
			</defs>
			<clipPath id="SVGID_16_">
				<use xlink:href="#SVGID_15_"  style="overflow:visible;"/>
			</clipPath>
			<line class="st7" x1="62" y1="24.1" x2="53.4" y2="8.4"/>
		</g>
		<g>
			<polygon id="SVGID_1_" class="st8" points="78,47.6 93.7,33.9 41.6,0.9 37,36.4 1.2,36.4 6,47 			"/>
		</g>
	</g>
	<g>
		<path class="st0" d="M109.4,47.1"/>
		<path class="st0" d="M116.2,47"/>
		<g>
			<g>
				<defs>
					<polygon id="SVGID_17_" points="116.3,12.8 126.9,46.8 78.8,47.6 					"/>
				</defs>
				<clipPath id="SVGID_18_">
					<use xlink:href="#SVGID_17_"  style="overflow:visible;"/>
				</clipPath>
				<polyline class="st9" points="126.9,46.8 116.1,39.9 119.6,23.5 109.2,34.3 116.3,12.8 				"/>
			</g>
			<g>
				<defs>
					<polygon id="SVGID_19_" points="116.3,12.8 126.9,46.8 78.8,47.6 					"/>
				</defs>
				<clipPath id="SVGID_20_">
					<use xlink:href="#SVGID_19_"  style="overflow:visible;"/>
				</clipPath>
				<polyline class="st10" points="107.3,21.2 109.2,34.3 116.1,39.9 98.7,47.3 109.2,34.3 78.8,47.6 				"/>
			</g>
			<g>
				<defs>
					<polygon id="SVGID_21_" points="116.3,12.8 126.9,46.8 78.8,47.6 					"/>
				</defs>
				<clipPath id="SVGID_22_">
					<use xlink:href="#SVGID_21_"  style="overflow:visible;"/>
				</clipPath>
				<line class="st11" x1="91.2" y1="36.1" x2="109.2" y2="34.3"/>
			</g>
			<g>
				<defs>
					<polygon id="SVGID_23_" points="116.3,12.8 126.9,46.8 78.8,47.6 					"/>
				</defs>
				<clipPath id="SVGID_24_">
					<use xlink:href="#SVGID_23_"  style="overflow:visible;"/>
				</clipPath>
				<polyline class="st12" points="120.3,46.9 116.1,39.9 124.2,38.1 				"/>
			</g>
			<g>
				<polygon id="SVGID_3_" class="st0" points="116.3,12.8 126.9,46.8 78.8,47.6 				"/>
			</g>
		</g>
		<polygon class="st0" points="116.3,12.8 126.9,46.8 78.8,47.6 		"/>
	</g>
</g>
</svg>
