<?xml version="1.0" encoding="utf-8"?>
<!-- Generator: Adobe Illustrator 22.1.0, SVG Export Plug-In . SVG Version: 6.00 Build 0)  -->
<svg version="1.1" xmlns="http://www.w3.org/2000/svg" xmlns:xlink="http://www.w3.org/1999/xlink" x="0px" y="0px"
	 viewBox="0 0 1000 1000" style="enable-background:new 0 0 1000 1000;" xml:space="preserve">
<style type="text/css">
	.st0{display:none;}
	.st1{display:inline;fill:#E6E7E8;}
	.st2{display:inline;}
	.st3{fill:#DBDBDB;}
	.st4{fill:#D79C83;}
	.st5{fill:#22223F;}
</style>
<g id="Layer_3" class="st0">
	<path class="st1" d="M514.3,778.4c0-82.8-58.5-151.9-145.8-151.9c-54.7,0-103.4,24.1-129.4,65.7c-22.8,36.4-10.7,83.1-45.2,151.9
		c-12.1,24.1-86.2,102.7-86.2,102.7s217.1,20.7,295.7-8.2C481.4,909.8,514.3,830.5,514.3,778.4z"/>
	<g class="st2">
		<path class="st3" d="M504.1,684.4l362.3-520.9c0,0,58.1-75.9,0.2-109.7s-99.3,40.9-99.3,40.9L405.8,614.5
			C447.4,622.3,482.3,648.1,504.1,684.4z"/>
	</g>
</g>
<g id="Layer_2">
	<path class="st4" d="M514.6,775.5c0-81.8-57.8-150.1-144-150.1c-54,0-102.1,23.8-127.8,64.9c-22.5,36-10.6,82.1-44.6,150.1
		C186.3,864.2,113,941.8,113,941.8s214.4,20.5,292.1-8.1C482.1,905.3,514.6,826.9,514.6,775.5z"/>
	<g>
		<path class="st5" d="M504.6,682.6l357.8-514.5c0,0,57.4-75,0.2-108.4c-57.2-33.4-98.1,40.4-98.1,40.4L407.4,613.6
			C448.5,621.3,483,646.7,504.6,682.6z"/>
	</g>
</g>
</svg>
