<?xml version="1.0" encoding="utf-8"?>
<!-- Generator: Adobe Illustrator 22.1.0, SVG Export Plug-In . SVG Version: 6.00 Build 0)  -->
<svg version="1.1" id="Layer_3" xmlns="http://www.w3.org/2000/svg" xmlns:xlink="http://www.w3.org/1999/xlink" x="0px" y="0px"
	 viewBox="0 0 1000 1000" style="enable-background:new 0 0 1000 1000;" xml:space="preserve">
<style type="text/css">
	.st0{fill:#E6E7E8;}
	.st1{fill:#DBDBDB;}
</style>
<path class="st0" d="M514.3,778.4c0-82.8-58.5-151.9-145.8-151.9c-54.7,0-103.4,24.1-129.4,65.7c-22.8,36.4-10.7,83.1-45.2,151.9
	c-12.1,24.1-86.2,102.7-86.2,102.7s217.1,20.7,295.7-8.2C481.4,909.8,514.3,830.5,514.3,778.4z"/>
<g>
	<path class="st1" d="M504.1,684.4l362.3-520.9c0,0,58.1-75.9,0.2-109.7s-99.3,40.9-99.3,40.9L405.8,614.5
		C447.4,622.3,482.3,648.1,504.1,684.4z"/>
</g>
</svg>
