<svg xmlns="http://www.w3.org/2000/svg" viewBox="0 0 843.7 370.49"><defs><style>.cls-1{fill:#0b203f;}.cls-2{fill:#1b6fc1;}</style></defs><title>howcanwe</title><g id="Layer_1" data-name="Layer 1"><path class="cls-1" d="M152.78,36.79V158.6H123.14V107.78H77V158.6H47.51V36.79H77V84h46.17V36.79Z" transform="translate(-38.25 -36.79)"/><path class="cls-1" d="M243.66,67.2A43.62,43.62,0,0,1,261.4,84.34q6.47,11.2,6.47,26.19t-6.47,26.19a43.58,43.58,0,0,1-17.74,17.15,58.26,58.26,0,0,1-51.26,0,43.49,43.49,0,0,1-17.83-17.15q-6.47-11.19-6.46-26.19t6.46-26.19A43.53,43.53,0,0,1,192.4,67.2a58.26,58.26,0,0,1,51.26,0Zm-39.8,25.67q-5.78,6.12-5.77,17.66t5.77,17.58a18.89,18.89,0,0,0,14.21,6,18.63,18.63,0,0,0,14.13-6q5.69-6,5.69-17.58T232.2,92.87a18.53,18.53,0,0,0-14.13-6.11A18.79,18.79,0,0,0,203.86,92.87Z" transform="translate(-38.25 -36.79)"/><path class="cls-1" d="M423.79,62.46,399.15,158.6H366.24l-17.4-64.43L331.27,158.6H298.36L273.72,62.46h29.46l12.75,69.27,17.92-69.27h31.36l18.44,69.44L396.4,62.46Z" transform="translate(-38.25 -36.79)"/><path class="cls-1" d="M241.27,177.79q9,7.31,11.29,20.06H230.35a11.63,11.63,0,0,0-4-6.87,11.94,11.94,0,0,0-7.72-2.46,11.23,11.23,0,0,0-9.08,4.36q-3.56,4.35-3.56,12.69t3.56,12.7a11.23,11.23,0,0,0,9.08,4.36,11.94,11.94,0,0,0,7.72-2.46,11.63,11.63,0,0,0,4-6.87h22.21q-2.34,12.76-11.29,20.06t-22.2,7.3a36.79,36.79,0,0,1-17.85-4.23A30.28,30.28,0,0,1,189,224.22a42,42,0,0,1-.06-37.35,29.83,29.83,0,0,1,12.21-12.15,37.14,37.14,0,0,1,17.91-4.23Q232.32,170.49,241.27,177.79Z" transform="translate(-38.25 -36.79)"/><path class="cls-1" d="M303,174.05a21.38,21.38,0,0,1,8.34,9.69V171.35h20.86V239.8H311.31V227.41A21.38,21.38,0,0,1,303,237.1a24.79,24.79,0,0,1-13.49,3.56,27.72,27.72,0,0,1-15.15-4.23,28.93,28.93,0,0,1-10.55-12.21,47,47,0,0,1,0-37.35,29,29,0,0,1,10.55-12.15,27.72,27.72,0,0,1,15.15-4.23A24.79,24.79,0,0,1,303,174.05Zm-17.6,19.26q-4.11,4.41-4.11,12.26t4.11,12.27a15.39,15.39,0,0,0,21.71-.12c2.82-3,4.23-7.07,4.23-12.15s-1.41-9.22-4.23-12.2a15.46,15.46,0,0,0-21.71-.06Z" transform="translate(-38.25 -36.79)"/><path class="cls-1" d="M408.77,178.46q6.93,7.86,6.93,21.59V239.8h-21V202.51q0-6.87-3.62-10.74a12.59,12.59,0,0,0-9.63-3.86q-6.39,0-10.12,4.05t-3.74,11.53V239.8h-21V171.35h21v12.51a22.51,22.51,0,0,1,8.77-9.69,25.71,25.71,0,0,1,13.67-3.56Q401.85,170.61,408.77,178.46Z" transform="translate(-38.25 -36.79)"/><path class="cls-1" d="M536.83,170.79l-18,70.16h-24l-12.7-47-12.82,47h-24l-18-70.16h21.5l9.31,50.55,13.07-50.55h22.89l13.45,50.67,9.31-50.67Z" transform="translate(-38.25 -36.79)"/><path class="cls-1" d="M610.63,209.77H562q.39,7.92,4,11.38a13,13,0,0,0,9.3,3.46,12.71,12.71,0,0,0,7.92-2.39,11.14,11.14,0,0,0,4.15-6.16h22.76a29.64,29.64,0,0,1-6,13.26,32.27,32.27,0,0,1-11.82,9.18,40.43,40.43,0,0,1-34.27-1A31,31,0,0,1,545.5,225,38.81,38.81,0,0,1,541,205.87q0-11.06,4.46-19.17A30.56,30.56,0,0,1,558,174.25a41.24,41.24,0,0,1,36.71-.06,30.11,30.11,0,0,1,12.26,12A35.63,35.63,0,0,1,611.26,204,29.52,29.52,0,0,1,610.63,209.77ZM585.8,190.35a13.63,13.63,0,0,0-9.49-3.46,14.07,14.07,0,0,0-9.81,3.52q-3.9,3.53-4.4,10.31h27.41Q589.63,193.81,585.8,190.35Z" transform="translate(-38.25 -36.79)"/><path class="cls-1" d="M126.3,270.48q5.87,6.31,5.87,17.56v32.23H115.26V290c0-3.52-1-6.25-2.84-8.21a10.21,10.21,0,0,0-7.71-2.94,10.45,10.45,0,0,0-8,3.14c-2,2.09-2.93,5-2.93,8.8v29.45h-17V290c0-3.52-.93-6.25-2.78-8.21a10,10,0,0,0-7.66-2.94A10.68,10.68,0,0,0,58.25,282c-2,2-3,5-3,8.85v29.45h-17V264.75h17v9.46A16.62,16.62,0,0,1,62,266.84a20.35,20.35,0,0,1,10.59-2.68,21.44,21.44,0,0,1,11.25,2.93,18.46,18.46,0,0,1,7.36,8.41,22.24,22.24,0,0,1,7.91-8.26,20.85,20.85,0,0,1,11.09-3.08Q120.43,264.16,126.3,270.48Z" transform="translate(-38.25 -36.79)"/><path class="cls-1" d="M175.55,266.94a17.49,17.49,0,0,1,6.77,7.86V264.75h16.91v55.52H182.32v-10a17.39,17.39,0,0,1-6.77,7.86,20.05,20.05,0,0,1-11,2.89,22.53,22.53,0,0,1-12.28-3.43,23.48,23.48,0,0,1-8.56-9.9,38.23,38.23,0,0,1,0-30.3,23.52,23.52,0,0,1,8.56-9.85,22.45,22.45,0,0,1,12.28-3.43A20.13,20.13,0,0,1,175.55,266.94Zm-14.28,15.62q-3.33,3.58-3.33,9.95t3.33,9.95a12.49,12.49,0,0,0,17.61-.1q3.44-3.67,3.44-9.85c0-4.18-1.15-7.47-3.44-9.9a12.56,12.56,0,0,0-17.61-.05Z" transform="translate(-38.25 -36.79)"/><path class="cls-1" d="M244.6,320.27,228,296.69v23.58H211V246.65h17V287l16.62-22.29h20l-22.38,27.76,22.88,27.76Z" transform="translate(-38.25 -36.79)"/><path class="cls-1" d="M323.49,295.6H285q.3,6.27,3.18,9a10.24,10.24,0,0,0,7.36,2.74,10.07,10.07,0,0,0,6.27-1.89,8.82,8.82,0,0,0,3.28-4.88h18a23.58,23.58,0,0,1-4.77,10.5,25.41,25.41,0,0,1-9.36,7.26A29.53,29.53,0,0,1,296.33,321a30,30,0,0,1-14.48-3.43,24.49,24.49,0,0,1-9.89-9.9,30.75,30.75,0,0,1-3.59-15.13,31.06,31.06,0,0,1,3.53-15.17,24.27,24.27,0,0,1,9.9-9.85,32.68,32.68,0,0,1,29.05-.05,23.88,23.88,0,0,1,9.71,9.5A28.4,28.4,0,0,1,324,291,23.68,23.68,0,0,1,323.49,295.6Zm-19.65-15.37a10.78,10.78,0,0,0-7.51-2.74,11.13,11.13,0,0,0-7.76,2.79q-3.09,2.78-3.48,8.15h21.69C306.84,284.79,305.86,282.05,303.84,280.23Z" transform="translate(-38.25 -36.79)"/><path class="cls-1" d="M355.46,268.52l13.4,34.2,12.5-34.2h18.9l-34.8,82.41H346.65l13.1-28.7-23.4-53.71Z" transform="translate(-38.25 -36.79)"/><path class="cls-1" d="M446.92,271.27a25.32,25.32,0,0,1,10.31,10,32.7,32.7,0,0,1,0,30.41,25.32,25.32,0,0,1-10.31,9.95,33.79,33.79,0,0,1-29.75,0,25.17,25.17,0,0,1-10.35-9.95,32.62,32.62,0,0,1,0-30.41,25.17,25.17,0,0,1,10.35-10,33.79,33.79,0,0,1,29.75,0Zm-23.1,14.9q-3.36,3.56-3.35,10.25t3.35,10.21a11,11,0,0,0,8.25,3.49,10.82,10.82,0,0,0,8.2-3.49q3.3-3.51,3.3-10.21t-3.3-10.25a10.74,10.74,0,0,0-8.2-3.55A10.87,10.87,0,0,0,423.82,286.17Z" transform="translate(-38.25 -36.79)"/><path class="cls-1" d="M525.39,268.52v55.81H508.18v-10.1A18.6,18.6,0,0,1,501,322a20.82,20.82,0,0,1-11,2.9q-9.6,0-15.25-6.4t-5.65-17.61v-32.4h17v30.3q0,5.7,2.95,8.85a10.35,10.35,0,0,0,8,3.16,10.5,10.5,0,0,0,8.2-3.31q3-3.3,3-9.4v-29.6Z" transform="translate(-38.25 -36.79)"/><path class="cls-1" d="M562.55,270.92a21,21,0,0,1,11-3v18.3h-4.9q-6.81,0-10.55,2.9t-3.75,9.8v25.41H537.19V268.52H554.3V279A24.21,24.21,0,0,1,562.55,270.92Z" transform="translate(-38.25 -36.79)"/><path class="cls-2" d="M620,259.66V405.9H585.64V259.66Z" transform="translate(-38.25 -36.79)"/><path class="cls-2" d="M646.07,251.85q5.61-5,14.85-5t14.86,5a16.41,16.41,0,0,1,5.62,12.75,16.19,16.19,0,0,1-5.62,12.55q-5.62,5-14.86,5t-14.85-5a16.16,16.16,0,0,1-5.63-12.55A16.38,16.38,0,0,1,646.07,251.85ZM678,295.63V405.9H643.66V295.63Z" transform="translate(-38.25 -36.79)"/><path class="cls-2" d="M756.67,280.61q-8.43,0-12.24,3.55t-4.22,11.47h20.28v28.45H740.21V405.9H705.88V324.08H692.43V295.63h13.45v-1.19q0-20.55,12.15-31.72t35.23-11.17q4.82,0,7.23.2V280.8Z" transform="translate(-38.25 -36.79)"/><path class="cls-2" d="M880.94,356.89H803.25q.6,12.45,6.42,17.89t14.86,5.43q7.62,0,12.65-3.75a17.52,17.52,0,0,0,6.62-9.69h36.34a46.45,46.45,0,0,1-9.64,20.85,51.18,51.18,0,0,1-18.87,14.43,60.6,60.6,0,0,1-25.5,5.24q-16.46,0-29.2-6.82a49.07,49.07,0,0,1-20-19.67q-7.23-12.84-7.23-30,0-17.38,7.13-30.13a48.51,48.51,0,0,1,20-19.57q12.85-6.81,29.31-6.82,16.67,0,29.31,6.72A47.83,47.83,0,0,1,875,319.84q6.91,12.15,6.93,28A45.83,45.83,0,0,1,880.94,356.89Zm-39.65-30.53a22,22,0,0,0-15.16-5.44q-9.43,0-15.65,5.54t-7,16.2h43.77Q847.4,331.8,841.29,326.36Z" transform="translate(-38.25 -36.79)"/></g></svg>