<?xml version="1.0" encoding="utf-8"?>
<!-- Generator: Adobe Illustrator 22.1.0, SVG Export Plug-In . SVG Version: 6.00 Build 0)  -->
<svg version="1.1" id="Layer_1" xmlns="http://www.w3.org/2000/svg" xmlns:xlink="http://www.w3.org/1999/xlink" x="0px" y="0px"
	 viewBox="0 0 216 210.5" style="enable-background:new 0 0 216 210.5;" xml:space="preserve">
<style type="text/css">
	.st0{fill:#2B9AD1;stroke:#2B9AD1;stroke-width:0.5673;stroke-miterlimit:10;}
	.st1{fill:#9CD30B;stroke:#9CD30B;stroke-width:0.5673;stroke-miterlimit:10;}
	.st2{fill:none;stroke:#9CD30B;stroke-width:0.8528;stroke-miterlimit:10;}
	.st3{fill:#9CD30B;}
	.st4{fill:#2B9AD1;}
	.st5{fill:none;stroke:#0A465A;stroke-width:0.2836;stroke-miterlimit:10;}
	.st6{fill:none;stroke:#37E23B;stroke-width:0.5673;stroke-miterlimit:10;}
	.st7{fill:none;stroke:#2B9AD1;stroke-width:0.8528;stroke-miterlimit:10;}
	.st8{clip-path:url(#SVGID_2_);fill:none;stroke:#9CD30B;stroke-width:0.8528;stroke-miterlimit:10;}
	.st9{fill:none;stroke:#2B9AD1;stroke-width:1.1371;stroke-miterlimit:10;}
	.st10{clip-path:url(#SVGID_4_);fill:none;stroke:#2B9AD1;stroke-width:0.8528;stroke-miterlimit:10;}
</style>
<g>
	<path class="st0" d="M107.8,198.6c-53.5,0-97.1-43.6-97.1-97.1S54.2,4.4,107.8,4.4c53.5,0,97.1,43.6,97.1,97.1
		S161.3,198.6,107.8,198.6z M107.8,6.2c-52.5,0-95.3,42.8-95.3,95.3s42.8,95.3,95.3,95.3c52.6,0,95.3-42.8,95.3-95.3
		S160.3,6.2,107.8,6.2z"/>
	<path class="st1" d="M210.6,91.7c0.3,3.4,0.5,6.8,0.5,10.2c0,56.8-46.2,103-103,103s-103-46.2-103-103c0-31.6,14.3-59.8,36.7-78.8
		l-1.9-0.8C17.5,41.7,3.3,70.2,3.3,101.9c0,57.8,47,104.8,104.8,104.8s104.8-47,104.8-104.8c0-3.2-0.2-6.3-0.4-9.4L210.6,91.7z"/>
	<g>
		<polygon class="st2" points="102.5,97.4 85.3,97.4 99.6,146.4 121.8,126.8 144.1,146.4 146.9,137.2 		"/>
		<polygon class="st3" points="147.4,135.2 158.7,97.4 105.2,97.4 		"/>
		<polygon class="st4" points="105.2,97.4 136.1,97.4 121.6,48.4 99.3,68 77,48.4 71.5,67.2 		"/>
		<path class="st5" d="M77.2,97.4"/>
		<path class="st5" d="M71.5,97.4"/>
		<path class="st6" d="M99.6,146.4"/>
		<polygon class="st2" points="81.5,116.5 78,117.8 80.5,120.8 		"/>
		<polygon class="st2" points="92.5,141.2 85.2,147 89.8,148.2 		"/>
		<polygon class="st2" points="120.1,137.9 123.4,142.8 117.9,142.8 		"/>
		<polygon class="st7" points="61.6,82.9 63.3,85.6 60.9,87 59.8,80.1 		"/>
		<polygon class="st7" points="58.2,92.6 55.8,93.6 57.9,95.6 		"/>
		<polygon class="st7" points="68.4,102 71.3,104.6 71.4,101.7 		"/>
		<polygon class="st2" points="105.8,155.3 106.6,158.8 108.3,155.3 		"/>
		<polygon class="st2" points="89.5,136.9 91.6,133.3 86.6,133 		"/>
		<polygon class="st7" points="66.3,70.6 63.8,69.8 64.6,72 		"/>
		<g>
			<defs>
				<polygon id="SVGID_1_" points="102.5,97.4 85.3,97.4 99.6,146.4 121.8,126.8 144.1,146.4 146.9,137.2 				"/>
			</defs>
			<clipPath id="SVGID_2_">
				<use xlink:href="#SVGID_1_"  style="overflow:visible;"/>
			</clipPath>
			<polygon class="st8" points="111,118.7 121.8,126.8 121.8,114.7 			"/>
			<polygon class="st8" points="111,118.7 102.5,97.4 92.1,106.1 			"/>
			<polygon class="st8" points="111,118.7 99.6,146.4 99.6,120.8 			"/>
			<polyline class="st8" points="92.1,106.1 92.1,120.8 99.6,120.8 92.1,106.1 86,99.8 102.5,97.4 			"/>
			<polyline class="st8" points="144.1,146.4 122,115.2 126.8,131.2 131.9,129.1 146.9,137.2 			"/>
			<polyline class="st8" points="115.3,132.5 111,118.7 114.4,108 			"/>
			<line class="st8" x1="99.6" y1="120.8" x2="96.3" y2="135.2"/>
		</g>
		<line class="st9" x1="170.9" y1="158.4" x2="44.9" y2="45.5"/>
		<g>
			<defs>
				<polygon id="SVGID_3_" points="71,69.1 62.7,97.4 102.5,97.4 				"/>
			</defs>
			<clipPath id="SVGID_4_">
				<use xlink:href="#SVGID_3_"  style="overflow:visible;"/>
			</clipPath>
			<polyline class="st10" points="62.7,97.4 71.5,91.6 68.4,78 77.2,86.8 71,69.1 			"/>
			<polyline class="st10" points="78.6,75.9 77.2,86.8 71.5,91.6 86,97.4 77.2,86.8 102.5,97.4 			"/>
			<line class="st10" x1="92.1" y1="88.1" x2="77.2" y2="86.8"/>
			<polyline class="st10" points="68.2,97.4 71.5,91.6 64.8,90.2 			"/>
		</g>
		<polygon class="st7" points="71,69.1 62.7,97.4 102.5,97.4 		"/>
	</g>
</g>
</svg>
