<?xml version="1.0" encoding="utf-8"?>
<!-- Generator: Adobe Illustrator 22.1.0, SVG Export Plug-In . SVG Version: 6.00 Build 0)  -->
<svg version="1.1" xmlns="http://www.w3.org/2000/svg" xmlns:xlink="http://www.w3.org/1999/xlink" x="0px" y="0px"
	 viewBox="0 0 1000 1000" style="enable-background:new 0 0 1000 1000;" xml:space="preserve">
<style type="text/css">
	.st0{display:none;}
	.st1{display:inline;}
	.st2{fill:#00A8BB;}
	.st3{fill:#495D61;}
	.st4{fill:#FFE169;}
	.st5{fill:#FBF8CD;}
	.st6{fill:#DBDBDB;}
	.st7{fill:#686868;}
</style>
<g id="Layer_2" class="st0">
	<g class="st1">
		<path class="st2" d="M635.1,832.3c-0.2-36.4,28.9-83.4,28.9-83.4H357.5c0,0,36.5,45,44.1,83.4H635.1z"/>
		<path class="st3" d="M401.6,844.9c0,0,1.1,139.1,116.8,139.1c115.7,0,116.8-139.1,116.8-139.1H401.6z"/>
		<path class="st4" d="M670.1,714.7C754.6,583,835.6,406.3,835.6,311.3c0-163.6-145.4-296.2-324.8-296.2
			C331.4,15.1,186,147.7,186,311.3c0,94.9,90.7,271.7,177.6,403.3H670.1z"/>
		<path class="st5" d="M775.4,236c0,71.2-62.8,128.9-140.3,128.9c-77.5,0-140.3-57.7-140.3-128.9c0-71.2,62.8-129,140.3-129
			C712.6,107,775.4,164.7,775.4,236z"/>
	</g>
</g>
<g id="Layer_3">
	<polygon class="st6" points="791.7,957.5 684.7,979 521.2,718.4 628.2,696.9 	"/>
	<polygon class="st6" points="315.7,978.6 209.7,955.6 384.1,697.3 490.1,720.3 	"/>
	<ellipse class="st7" cx="499.5" cy="437.6" rx="396.8" ry="400.6"/>
	<g>
		<ellipse class="st6" cx="499.5" cy="437.6" rx="258" ry="260.5"/>
	</g>
	<ellipse class="st7" cx="499.5" cy="437.6" rx="135.9" ry="137.3"/>
	<g>
		<ellipse class="st6" cx="499.5" cy="437.6" rx="67.3" ry="68"/>
	</g>
</g>
</svg>
