<?xml version="1.0" encoding="utf-8"?>
<!-- Generator: Adobe Illustrator 22.1.0, SVG Export Plug-In . SVG Version: 6.00 Build 0)  -->
<svg version="1.1" id="Layer_1" xmlns="http://www.w3.org/2000/svg" xmlns:xlink="http://www.w3.org/1999/xlink" x="0px" y="0px"
	 viewBox="0 0 172.3 25.4" style="enable-background:new 0 0 172.3 25.4;" xml:space="preserve">
<style type="text/css">
	.st0{display:none;}
	.st1{display:inline;}
	.st2{fill:#9CD30B;}
	.st3{fill:#2B9AD1;}
	.st4{fill:none;stroke:#0A465A;stroke-width:0.2836;stroke-miterlimit:10;}
	.st5{fill:none;stroke:#37E23B;stroke-width:0.5673;stroke-miterlimit:10;}
	.st6{clip-path:url(#SVGID_2_);}
	.st7{clip-path:url(#SVGID_4_);}
	.st8{clip-path:url(#SVGID_8_);}
	.st9{clip-path:url(#SVGID_10_);}
	.st10{clip-path:url(#SVGID_12_);}
	.st11{clip-path:url(#SVGID_14_);}
	.st12{clip-path:url(#SVGID_16_);}
	.st13{clip-path:url(#SVGID_18_);}
	.st14{clip-path:url(#SVGID_20_);}
	.st15{clip-path:url(#SVGID_22_);}
	.st16{clip-path:url(#SVGID_24_);}
	.st17{fill:#FFFFFF;}
	.st18{clip-path:url(#SVGID_26_);}
	.st19{clip-path:url(#SVGID_28_);}
	.st20{clip-path:url(#SVGID_30_);}
	.st21{clip-path:url(#SVGID_32_);}
	.st22{clip-path:url(#SVGID_34_);}
	.st23{clip-path:url(#SVGID_36_);}
	.st24{clip-path:url(#SVGID_38_);}
	.st25{clip-path:url(#SVGID_40_);}
	.st26{clip-path:url(#SVGID_42_);}
	.st27{clip-path:url(#SVGID_44_);}
	.st28{clip-path:url(#SVGID_46_);}
</style>
<g id="Layer_1_1_" class="st0">
	<g class="st1">
		<path class="st2" d="M14.7-2.4v-6l-2.8,2.5L9.1-8.4v6H7.2v-9.8h0.7L12-8.5l4.1-3.7h0.7v9.8H14.7z"/>
		<path class="st2" d="M28.4-7.3c0,2.8-2.3,5.1-5.1,5.1s-5.1-2.3-5.1-5.1c0-2.8,2.3-5.1,5.1-5.1S28.4-10.1,28.4-7.3z M20.3-7.3
			c0,1.7,1.4,3,3,3c1.7,0,3-1.4,3-3c0-1.7-1.4-3-3-3C21.7-10.4,20.3-9,20.3-7.3z"/>
		<path class="st2" d="M32.5-12.2c0.7,0,1.3,0.1,1.9,0.4c0.6,0.3,1.1,0.6,1.5,1c0.5,0.5,0.8,1,1,1.6c0.3,0.6,0.4,1.2,0.4,1.9
			c0,0.7-0.1,1.3-0.4,1.9c-0.2,0.6-0.6,1.1-1,1.5s-1,0.8-1.5,1c-0.6,0.3-1.2,0.4-1.9,0.4h-2l0,0h-0.8v-9.7
			C29.7-12.2,32.5-12.2,32.5-12.2z M32.5-4.4c1.6,0,2.9-1.3,2.9-2.9s-1.3-2.9-2.9-2.9h-0.8v5.9L32.5-4.4L32.5-4.4z"/>
		<path class="st2" d="M44.9-12.3v1.7H40l-1.6-1.7H44.9z M40-8.2h4.9v1.6H40h-1.6v-1.6H40z M40-4.1h4.9v1.7h-6.6v-0.2L40-4.1z"/>
		<path class="st2" d="M51.7-2.4l-1.8-3.9h-1v3.9H47v-9.8h3.7c1.6,0,2.9,1.3,2.9,2.9c0,1.2-0.7,2.2-1.7,2.7l1.9,4.2
			C53.8-2.4,51.7-2.4,51.7-2.4z M48.9-10.3v2h1.7c0.5,0,1-0.4,1-1c0-0.5-0.4-1-1-1C50.6-10.3,48.9-10.3,48.9-10.3z"/>
		<path class="st2" d="M62.6-2.4l-5.5-5.7v5.7h-1.9v-9.8h0.6l5.4,5.5v-5.5h1.9v9.8H62.6z"/>
	</g>
	<g class="st1">
		<path class="st3" d="M100.3-2.8v-6l-2.8,2.5l-2.8-2.5v6h-1.9v-9.8h0.7l4.1,3.7l4.1-3.7h0.7v9.8H100.3z"/>
		<path class="st3" d="M110.7-4.6h-4l-0.9,1.8h-2.2l5-9.8h0.6l4.6,9.8h-2.2L110.7-4.6z M109.8-6.6l-1-2.2l-1.1,2.2H109.8z"/>
		<path class="st3" d="M119.5-2.8l-1.8-3.9h-1v3.9h-1.9v-9.8h3.7c1.6,0,2.9,1.3,2.9,2.9c0,1.2-0.7,2.2-1.7,2.7l1.9,4.2
			C121.6-2.8,119.5-2.8,119.5-2.8z M116.7-10.6v2h1.7c0.5,0,1-0.4,1-1s-0.4-1-1-1H116.7z"/>
		<path class="st3" d="M125.7-7.3l-0.8,0.8v3.7H123v-9.7h1.9v3.1l2.9-3.1h2.6L127-8.7l3.5,5.9h-2.3L125.7-7.3z"/>
		<path class="st3" d="M138-12.7v1.7h-4.9l-1.6-1.7H138z M133.1-8.5h4.9v1.6h-4.9h-1.6v-1.6H133.1z M133.1-4.4h4.9v1.7h-6.6v-0.1
			L133.1-4.4z"/>
		<path class="st3" d="M147.3-12.5v1.9h-2.7v7.8h-1.9v-7.8H140v-1.9H147.3z"/>
		<path class="st3" d="M151.9-10.6v5.9h1v1.9h-4v-1.9h1v-5.9h-1v-1.9h4v1.9H151.9z"/>
		<path class="st3" d="M162.2-2.8l-5.5-5.7v5.7h-1.9v-9.8h0.6l5.4,5.5v-5.5h1.9v9.8H162.2z"/>
		<path class="st3" d="M169.9-8.8h4.2v6h-1.9v-1c-1.1,0.9-2.3,1.1-3.1,1.1c-2.8,0-5-2.3-5-5.1c0-2.8,2.3-5,5.1-5l0,0
			c1.2,0,2.3,0.4,3.1,1.1l-1.4,1.4c-0.5-0.3-1.1-0.5-1.7-0.5l0,0c-0.8,0-1.6,0.3-2.2,0.9c-0.6,0.6-0.9,1.4-0.9,2.2
			c0,0.8,0.3,1.6,0.9,2.2c0.6,0.6,1.4,0.9,2.2,0.9l0,0c0.8,0,1.6-0.3,2.2-0.9c0.4-0.4,0.7-0.9,0.8-1.4h-2.3L169.9-8.8L169.9-8.8z"/>
	</g>
	<g class="st1">
		<g>
			<path class="st3" d="M77.9,3.3c-6.2,0-11.3-4.9-11.3-10.9s5.1-11,11.3-11c6.2,0,11.3,4.9,11.3,10.9S84.1,3.3,77.9,3.3z
				 M77.9-18.4c-6.1,0-11.1,4.8-11.1,10.7S71.8,3,77.9,3S89-1.8,89-7.7S84-18.4,77.9-18.4z"/>
			<path class="st3" d="M77.9,3.3c-6.2,0-11.3-4.9-11.3-11s5.1-11,11.3-11c6.2,0,11.3,4.9,11.3,11C89.2-1.6,84.2,3.3,77.9,3.3z
				 M77.9-18.5c-6.2,0-11.2,4.9-11.2,10.9s5,10.9,11.2,10.9S89.1-1.6,89.1-7.6C89.1-13.7,84.1-18.5,77.9-18.5z M77.9,3.1
				c-6.1,0-11.1-4.8-11.1-10.8c0-5.9,5-10.8,11.1-10.8S89-13.7,89-7.7C89-1.7,84,3.1,77.9,3.1z M77.9-18.3c-6.1,0-11,4.8-11,10.7
				s4.9,10.7,11,10.7s11-4.8,11-10.7C88.9-13.5,84-18.3,77.9-18.3z"/>
		</g>
		<g>
			<path class="st2" d="M89.9-8.8C89.9-8.4,90-8,90-7.7c0,6.4-5.4,11.6-12,11.6S66-1.3,66-7.7c0-3.6,1.7-6.7,4.3-8.9H70
				c-2.6,2.2-4.2,5.4-4.2,8.9c0,6.5,5.5,11.8,12.2,11.8S90.2-1.2,90.2-7.7c0-0.4,0-0.7,0-1.1H89.9z"/>
			<path class="st2" d="M78,4.2c-6.7,0-12.2-5.3-12.2-11.8c0-3.5,1.6-6.7,4.3-9l0,0l0.3,0.1l-0.1,0.1c-2.7,2.2-4.2,5.4-4.2,8.8
				c0,6.4,5.3,11.5,11.9,11.5S89.9-1.3,89.9-7.6c0-0.4,0-0.8-0.1-1.1v-0.1l0.3,0.1l0,0c0,0.4,0,0.7,0,1.1C90.2-1.1,84.7,4.2,78,4.2z
				 M70-16.5c-2.7,2.2-4.2,5.5-4.2,8.9c0,6.5,5.4,11.7,12.1,11.7S90-1.2,90-7.6c0-0.3,0-0.7,0-1h-0.1c0,0.4,0.1,0.7,0.1,1.1
				c0,6.4-5.4,11.6-12,11.6S66-1.1,66-7.5c0-3.4,1.5-6.6,4.2-8.8L70-16.5z"/>
		</g>
		<g>
			<g>
				<path class="st2" d="M76.9-2.5l-1.7-5.7h2.1l5.2,4.5l-0.4,1.2l-2.6-2.2L76.9-2.5z M79.5-4.9L82-2.7l0.3-0.9L77.2-8h-1.9l1.6,5.3
					L79.5-4.9z"/>
			</g>
			<g>
				<polygon class="st2" points="82.5,-3.9 83.8,-8.1 77.6,-8.1 				"/>
			</g>
			<g>
				<polygon class="st3" points="77.6,-8.1 81.2,-8.1 79.5,-13.6 76.9,-11.4 74.3,-13.6 73.7,-11.5 				"/>
			</g>
			<g>
				<path class="st4" d="M74.4-8.1"/>
			</g>
			<g>
				<path class="st4" d="M73.7-8.1"/>
			</g>
			<g>
				<path class="st5" d="M77-2.6"/>
			</g>
			<g>
				<path class="st2" d="M74.8-5.3l-0.5-0.5L75-6L74.8-5.3z M74.6-5.8L74.6-5.8L74.6-5.8L74.6-5.8z"/>
			</g>
			<g>
				<path class="st2" d="M75.9-2.3l-0.7-0.2l1.2-0.9L75.9-2.3z M75.5-2.6l0.3,0.1L76-3L75.5-2.6z"/>
			</g>
			<g>
				<path class="st2" d="M79.9-2.9H79l0.4-0.8L79.9-2.9z M79.2-3.1h0.4l-0.2-0.3L79.2-3.1z"/>
			</g>
			<g>
				<path class="st3" d="M72.4-9.2l-0.2-1.3l0.6,1L72.4-9.2z M72.5-9.7v0.3l0.1-0.1L72.5-9.7z"/>
			</g>
			<g>
				<path class="st3" d="M72.2-8.2l-0.4-0.4l0.5-0.2L72.2-8.2z M72-8.5L72-8.5L72-8.5L72-8.5z"/>
			</g>
			<g>
				<path class="st3" d="M73.8-7.1l-0.6-0.5l0.6-0.1V-7.1z M73.5-7.5L73.5-7.5L73.5-7.5L73.5-7.5z"/>
			</g>
			<g>
				<path class="st2" d="M77.8-1l-0.2-0.7h0.5L77.8-1z M77.8-1.5L77.8-1.5L77.8-1.5L77.8-1.5z"/>
			</g>
			<g>
				<path class="st2" d="M75.8-3.5l-0.5-0.7l0.9,0.1L75.8-3.5z M75.6-4l0.2,0.2L75.9-4H75.6z"/>
			</g>
			<g>
				<polygon class="st3" points="72.9,-10.9 72.7,-11.3 73.3,-11.2 				"/>
			</g>
			<g>
				<g>
					<defs>
						<polygon id="SVGID_1_" points="77.3,-8.1 75.3,-8.1 77,-2.6 79.5,-4.8 82.1,-2.6 82.5,-3.6 						"/>
					</defs>
					<clipPath id="SVGID_2_">
						<use xlink:href="#SVGID_1_"  style="overflow:visible;"/>
					</clipPath>
					<g class="st6">
						<path class="st2" d="M79.6-4.7l-1.5-1.1l1.5-0.5V-4.7z M78.5-5.7l1,0.7v-1.1L78.5-5.7z"/>
					</g>
				</g>
				<g>
					<defs>
						<polygon id="SVGID_3_" points="77.3,-8.1 75.3,-8.1 77,-2.6 79.5,-4.8 82.1,-2.6 82.5,-3.6 						"/>
					</defs>
					<clipPath id="SVGID_4_">
						<use xlink:href="#SVGID_3_"  style="overflow:visible;"/>
					</clipPath>
					<g class="st7">
						<path class="st2" d="M78.5-5.5L76-7.1l1.4-1.1L78.5-5.5z M76.2-7.1l1.9,1.2L77.2-8L76.2-7.1z"/>
					</g>
				</g>
				<g>
					<defs>
						<polygon id="SVGID_6_" points="77.3,-8.1 75.3,-8.1 77,-2.6 79.5,-4.8 82.1,-2.6 82.5,-3.6 						"/>
					</defs>
					<clipPath id="SVGID_8_">
						<use xlink:href="#SVGID_6_"  style="overflow:visible;"/>
					</clipPath>
					<g class="st8">
						<path class="st2" d="M76.9-2.2v-3.4l1.5-0.3L76.9-2.2z M77-5.4V-3l1.1-2.6L77-5.4z"/>
					</g>
				</g>
				<g>
					<defs>
						<polygon id="SVGID_9_" points="77.3,-8.1 75.3,-8.1 77,-2.6 79.5,-4.8 82.1,-2.6 82.5,-3.6 						"/>
					</defs>
					<clipPath id="SVGID_10_">
						<use xlink:href="#SVGID_9_"  style="overflow:visible;"/>
					</clipPath>
					<g class="st9">
						<path class="st2" d="M77.1-5.4H76v-1.7l-0.8-0.8l2.1-0.3V-8l-1.8,0.3l0.6,0.6L77.1-5.4z M76.2-5.6h0.7l-0.7-1.3V-5.6z"/>
					</g>
				</g>
				<g>
					<defs>
						<polygon id="SVGID_11_" points="77.3,-8.1 75.3,-8.1 77,-2.6 79.5,-4.8 82.1,-2.6 82.5,-3.6 						"/>
					</defs>
					<clipPath id="SVGID_12_">
						<use xlink:href="#SVGID_11_"  style="overflow:visible;"/>
					</clipPath>
					<g class="st10">
						<path class="st2" d="M82.1-2.6l-1.4-1.9l-0.6,0.2l-0.7-2.3l1.4,1.9l1.7,0.9l-0.1,0.1l-1.5-0.8l1.2,1.7V-2.6z M79.8-5.7
							l0.4,1.3l0.4-0.2L79.8-5.7z"/>
					</g>
				</g>
				<g>
					<defs>
						<polygon id="SVGID_13_" points="77.3,-8.1 75.3,-8.1 77,-2.6 79.5,-4.8 82.1,-2.6 82.5,-3.6 						"/>
					</defs>
					<clipPath id="SVGID_14_">
						<use xlink:href="#SVGID_13_"  style="overflow:visible;"/>
					</clipPath>
					<g class="st11">
						<polygon class="st2" points="78.7,-4.1 78.2,-5.7 78.6,-6.9 78.8,-6.9 78.4,-5.7 78.9,-4.2 						"/>
					</g>
				</g>
				<g>
					<defs>
						<polygon id="SVGID_15_" points="77.3,-8.1 75.3,-8.1 77,-2.6 79.5,-4.8 82.1,-2.6 82.5,-3.6 						"/>
					</defs>
					<clipPath id="SVGID_16_">
						<use xlink:href="#SVGID_15_"  style="overflow:visible;"/>
					</clipPath>
					<g class="st12">
						<polygon class="st2" points="76.7,-3.8 76.5,-3.9 76.9,-5.5 77,-5.5 						"/>
					</g>
				</g>
			</g>
			<g>
				<polygon class="st3" points="85.2,-1.2 70.5,-13.9 70.7,-14 85.3,-1.3 				"/>
			</g>
			<g>
				<g>
					<defs>
						<polygon id="SVGID_17_" points="73.6,-11.3 72.7,-8.1 77.3,-8.1 						"/>
					</defs>
					<clipPath id="SVGID_18_">
						<use xlink:href="#SVGID_17_"  style="overflow:visible;"/>
					</clipPath>
					<g class="st13">
						<polygon class="st3" points="72.7,-8.1 72.6,-8.2 73.6,-8.8 73.2,-10.5 74.2,-9.6 73.6,-11.3 73.7,-11.3 74.6,-9 73.5,-10.1 
							73.8,-8.7 						"/>
					</g>
				</g>
				<g>
					<defs>
						<polygon id="SVGID_19_" points="73.6,-11.3 72.7,-8.1 77.3,-8.1 						"/>
					</defs>
					<clipPath id="SVGID_20_">
						<use xlink:href="#SVGID_19_"  style="overflow:visible;"/>
					</clipPath>
					<g class="st14">
						<path class="st3" d="M75.6-7.9l-2.1-0.8l0.7-0.6L74-9.5l0.2,0.1l0.1-1.1h0.2l0,1.1l2.9,1.2l-0.1,0.1l-2.6-1.1L75.6-7.9z
							 M73.9-8.8l1.3,0.5l-0.8-0.9L73.9-8.8z"/>
					</g>
				</g>
				<g>
					<defs>
						<polygon id="SVGID_21_" points="73.6,-11.3 72.7,-8.1 77.3,-8.1 						"/>
					</defs>
					<clipPath id="SVGID_22_">
						<use xlink:href="#SVGID_21_"  style="overflow:visible;"/>
					</clipPath>
					<g class="st15">
						<polygon class="st3" points="76.1,-9.1 74.4,-9.2 74.4,-9.4 76.1,-9.2 						"/>
					</g>
				</g>
				<g>
					<defs>
						<polygon id="SVGID_23_" points="73.6,-11.3 72.7,-8.1 77.3,-8.1 						"/>
					</defs>
					<clipPath id="SVGID_24_">
						<use xlink:href="#SVGID_23_"  style="overflow:visible;"/>
					</clipPath>
					<g class="st16">
						<polygon class="st3" points="73.4,-8.1 73.3,-8.2 73.6,-8.7 72.9,-8.9 72.9,-9 73.8,-8.8 						"/>
					</g>
				</g>
			</g>
			<g>
				<path class="st3" d="M77.5-8h-4.9l1-3.4L77.5-8z M72.8-8.2h4.3l-3.4-3L72.8-8.2z"/>
			</g>
		</g>
	</g>
</g>
<g id="Layer_2_1_">
	<g>
		<path class="st17" d="M10,17.4v-6l-2.8,2.5l-2.8-2.5v6H2.5V7.6h0.7l4.1,3.7l4.1-3.7h0.7v9.8H10z"/>
		<path class="st17" d="M23.7,12.5c0,2.8-2.3,5.1-5.1,5.1s-5.1-2.3-5.1-5.1c0-2.8,2.3-5.1,5.1-5.1S23.7,9.8,23.7,12.5z M15.6,12.5
			c0,1.7,1.4,3,3,3c1.7,0,3-1.4,3-3c0-1.7-1.4-3-3-3S15.6,10.9,15.6,12.5z"/>
		<path class="st17" d="M27.9,7.7c0.7,0,1.3,0.1,1.9,0.4c0.6,0.3,1.1,0.6,1.5,1c0.5,0.5,0.8,1,1,1.6c0.3,0.6,0.4,1.2,0.4,1.9
			c0,0.7-0.1,1.3-0.4,1.9c-0.2,0.6-0.6,1.1-1,1.5s-1,0.8-1.5,1c-0.6,0.3-1.3,0.4-1.9,0.4h-2l0,0h-0.8V7.7H27.9z M27.9,15.5
			c1.6,0,2.9-1.3,2.9-2.9s-1.3-2.9-2.9-2.9h-0.8v5.9L27.9,15.5L27.9,15.5z"/>
		<path class="st17" d="M40.2,7.5v1.7h-4.9l-1.6-1.7H40.2z M35.3,11.7h4.9v1.6h-4.9h-1.6v-1.6H35.3z M35.3,15.8h4.9v1.6h-6.6v-0.1
			L35.3,15.8z"/>
		<path class="st17" d="M47,17.4l-1.8-3.9h-1v3.9h-1.9V7.6H46c1.6,0,2.9,1.3,2.9,2.9c0,1.2-0.7,2.2-1.7,2.7l1.9,4.2
			C49.1,17.4,47,17.4,47,17.4z M44.2,9.6v2h1.7c0.5,0,1-0.4,1-1c0-0.5-0.4-1-1-1H44.2z"/>
		<path class="st17" d="M58,17.4l-5.5-5.7v5.7h-1.9V7.6h0.6l5.4,5.5V7.6h1.9v9.8H58z"/>
	</g>
	<g>
		<path class="st17" d="M95.6,17.1v-6l-2.8,2.5L90,11.1v6h-1.9V7.3h0.7l4.1,3.7L97,7.3h0.7v9.8H95.6z"/>
		<path class="st17" d="M106.1,15.3h-4l-0.9,1.8H99l5-9.8h0.6l4.6,9.8H107L106.1,15.3z M105.2,13.3l-1-2.2l-1.1,2.2H105.2z"/>
		<path class="st17" d="M114.8,17.1l-1.8-3.9h-1v3.9h-1.9V7.3h3.7c1.6,0,2.9,1.3,2.9,2.9c0,1.2-0.7,2.2-1.7,2.7l1.9,4.2
			C116.9,17.1,114.8,17.1,114.8,17.1z M112,9.2v2h1.7c0.5,0,1-0.4,1-1c0-0.5-0.4-1-1-1H112z"/>
		<path class="st17" d="M121,12.6l-0.8,0.8v3.7h-1.9V7.4h1.9v3.1l2.9-3.1h2.6l-3.4,3.8l3.5,5.9h-2.3L121,12.6z"/>
		<path class="st17" d="M133.3,7.2v1.7h-4.9l-1.6-1.7H133.3z M128.4,11.3h4.9v1.6h-4.9h-1.6v-1.6H128.4z M128.4,15.4h4.9v1.7h-6.6
			V17L128.4,15.4z"/>
		<path class="st17" d="M142.7,7.3v1.9H140V17h-1.9V9.2h-2.7V7.3H142.7z"/>
		<path class="st17" d="M147.3,9.3v5.9h1v1.9h-4v-1.9h1V9.3h-1V7.4h4v1.9H147.3z"/>
		<path class="st17" d="M157.5,17.1l-5.5-5.7v5.7h-1.9V7.3h0.6l5.4,5.5V7.3h1.9v9.8H157.5z"/>
		<path class="st17" d="M165.2,11.1h4.2v6h-1.9v-1c-1.1,0.9-2.3,1.1-3.1,1.1c-2.8,0-5-2.3-5-5.1c0-2.8,2.3-5,5.1-5l0,0
			c1.2,0,2.3,0.4,3.1,1.1l-1.4,1.4c-0.5-0.3-1.1-0.5-1.7-0.5l0,0c-0.8,0-1.6,0.3-2.2,0.9c-0.6,0.6-0.9,1.4-0.9,2.2
			c0,0.8,0.3,1.6,0.9,2.2c0.6,0.6,1.4,0.9,2.2,0.9l0,0c0.8,0,1.6-0.3,2.2-0.9c0.4-0.4,0.7-0.9,0.8-1.4h-2.3L165.2,11.1L165.2,11.1z"
			/>
	</g>
	<g>
		<g>
			<path class="st17" d="M73.3,23.1c-6.2,0-11.3-4.9-11.3-10.9S67.1,1.3,73.3,1.3c6.2,0,11.3,4.9,11.3,10.9
				C84.5,18.2,79.5,23.1,73.3,23.1z M73.3,1.5c-6.1,0-11.1,4.8-11.1,10.7c0,5.9,5,10.7,11.1,10.7s11.1-4.8,11.1-10.7
				C84.3,6.3,79.4,1.5,73.3,1.5z"/>
			<path class="st17" d="M73.3,23.2c-6.2,0-11.3-4.9-11.3-11s5.1-11,11.3-11c6.2,0,11.3,4.9,11.3,11C84.6,18.3,79.5,23.2,73.3,23.2z
				 M73.3,1.3c-6.2,0-11.2,4.9-11.2,10.9s5,10.9,11.2,10.9s11.2-4.9,11.2-10.9S79.4,1.3,73.3,1.3z M73.3,23
				c-6.1,0-11.1-4.8-11.1-10.8c0-5.9,5-10.8,11.1-10.8s11.1,4.8,11.1,10.8C84.4,18.1,79.4,23,73.3,23z M73.3,1.5
				c-6.1,0-11,4.8-11,10.7c0,5.9,4.9,10.7,11,10.7s11-4.8,11-10.7S79.3,1.5,73.3,1.5z"/>
		</g>
		<g>
			<path class="st17" d="M85.2,11.1c0,0.4,0.1,0.8,0.1,1.1c0,6.4-5.4,11.6-12,11.6s-12-5.2-12-11.6c0-3.6,1.7-6.7,4.3-8.9l-0.2-0.1
				c-2.6,2.2-4.2,5.4-4.2,8.9c0,6.5,5.5,11.8,12.2,11.8s12.1-5.1,12.1-11.6c0-0.4,0-0.7,0-1.1L85.2,11.1z"/>
			<path class="st17" d="M73.3,24.1c-6.7,0-12.2-5.3-12.2-11.8c0-3.5,1.6-6.7,4.3-9l0,0l0.3,0.1l-0.1,0c-2.7,2.2-4.2,5.4-4.2,8.8
				c0,6.4,5.3,11.5,11.9,11.5s11.9-5.2,11.9-11.5c0-0.4,0-0.8-0.1-1.1V11l0.3,0.1l0,0c0,0.4,0,0.7,0,1.1
				C85.5,18.8,80,24.1,73.3,24.1z M65.4,3.4c-2.7,2.2-4.2,5.5-4.2,8.9c0,6.5,5.4,11.7,12.1,11.7s12.1-5.3,12.1-11.7c0-0.3,0-0.7,0-1
				h-0.1c0,0.4,0.1,0.7,0.1,1.1c0,6.4-5.4,11.6-12,11.6s-12-5.2-12-11.6c0-3.4,1.5-6.6,4.2-8.8L65.4,3.4z"/>
		</g>
		<g>
			<g>
				<path class="st17" d="M72.3,17.4l-1.8-5.7h2.1l5.2,4.5l-0.3,1.2l-2.6-2.2L72.3,17.4z M74.9,14.9l2.5,2.2l0.3-0.9l-5.1-4.4h-1.9
					l1.6,5.3L74.9,14.9z"/>
			</g>
			<g>
				<polygon class="st17" points="77.9,16 79.2,11.7 73,11.7 				"/>
			</g>
			<g>
				<polygon class="st17" points="73,11.7 76.5,11.7 74.9,6.2 72.3,8.4 69.7,6.2 69,8.3 				"/>
			</g>
			<g>
				<path class="st17" d="M69.7,11.7"/>
			</g>
			<g>
				<path class="st17" d="M69,11.7"/>
			</g>
			<g>
				<path class="st17" d="M72.3,17.3"/>
			</g>
			<g>
				<path class="st17" d="M70.1,14.5L69.6,14l0.7-0.2L70.1,14.5z M69.9,14.1L69.9,14.1L69.9,14.1L69.9,14.1z"/>
			</g>
			<g>
				<path class="st17" d="M71.2,17.5l-0.7-0.1l1.2-0.9L71.2,17.5z M70.8,17.3l0.3,0.1l0.2-0.5L70.8,17.3z"/>
			</g>
			<g>
				<path class="st17" d="M75.2,16.9h-0.9l0.4-0.8L75.2,16.9z M74.6,16.8H75l-0.2-0.3L74.6,16.8z"/>
			</g>
			<g>
				<path class="st17" d="M67.8,10.7l-0.2-1.3l0.6,1L67.8,10.7z M67.8,10.1v0.3l0.1-0.1L67.8,10.1z"/>
			</g>
			<g>
				<path class="st17" d="M67.5,11.7l-0.4-0.4l0.5-0.2L67.5,11.7z M67.4,11.3L67.4,11.3L67.4,11.3L67.4,11.3z"/>
			</g>
			<g>
				<path class="st17" d="M69.1,12.7l-0.6-0.5l0.6-0.1V12.7z M68.9,12.3L68.9,12.3L68.9,12.3L68.9,12.3z"/>
			</g>
			<g>
				<path class="st17" d="M73.1,18.9l-0.2-0.7h0.5L73.1,18.9z M73.1,18.3L73.1,18.3L73.1,18.3L73.1,18.3z"/>
			</g>
			<g>
				<path class="st17" d="M71.1,16.3l-0.5-0.7l0.9,0.1L71.1,16.3z M71,15.8l0.2,0.2l0.1-0.2H71z"/>
			</g>
			<g>
				<polygon class="st17" points="68.2,9 68,8.5 68.6,8.7 				"/>
			</g>
			<g>
				<g>
					<polygon id="SVGID_5_" class="st17" points="72.6,11.7 70.6,11.7 72.3,17.3 74.9,15.1 77.5,17.3 77.8,16.2 					"/>
				</g>
				<g>
					<defs>
						<polygon id="SVGID_25_" points="72.6,11.7 70.6,11.7 72.3,17.3 74.9,15.1 77.5,17.3 77.8,16.2 						"/>
					</defs>
					<clipPath id="SVGID_26_">
						<use xlink:href="#SVGID_25_"  style="overflow:visible;"/>
					</clipPath>
					<g class="st18">
						<path class="st17" d="M75,15.2l-1.5-1.1l1.5-0.5V15.2z M73.8,14.2l1,0.7v-1.1L73.8,14.2z"/>
					</g>
				</g>
				<g>
					<defs>
						<polygon id="SVGID_27_" points="72.6,11.7 70.6,11.7 72.3,17.3 74.9,15.1 77.5,17.3 77.8,16.2 						"/>
					</defs>
					<clipPath id="SVGID_28_">
						<use xlink:href="#SVGID_27_"  style="overflow:visible;"/>
					</clipPath>
					<g class="st19">
						<path class="st17" d="M73.8,14.3l-2.5-1.6l1.4-1.1L73.8,14.3z M71.6,12.7l1.9,1.2l-0.9-2.1L71.6,12.7z"/>
					</g>
				</g>
				<g>
					<defs>
						<polygon id="SVGID_29_" points="72.6,11.7 70.6,11.7 72.3,17.3 74.9,15.1 77.5,17.3 77.8,16.2 						"/>
					</defs>
					<clipPath id="SVGID_30_">
						<use xlink:href="#SVGID_29_"  style="overflow:visible;"/>
					</clipPath>
					<g class="st20">
						<path class="st17" d="M72.2,17.6v-3.3l1.5-0.3L72.2,17.6z M72.4,14.4v2.4l1.1-2.6L72.4,14.4z"/>
					</g>
				</g>
				<g>
					<defs>
						<polygon id="SVGID_31_" points="72.6,11.7 70.6,11.7 72.3,17.3 74.9,15.1 77.5,17.3 77.8,16.2 						"/>
					</defs>
					<clipPath id="SVGID_32_">
						<use xlink:href="#SVGID_31_"  style="overflow:visible;"/>
					</clipPath>
					<g class="st21">
						<path class="st17" d="M72.4,14.4h-1.1v-1.7l-0.8-0.8l2.1-0.3v0.2l-1.8,0.3l0.6,0.6L72.4,14.4z M71.5,14.3h0.7L71.5,13V14.3z"
							/>
					</g>
				</g>
				<g>
					<defs>
						<polygon id="SVGID_33_" points="72.6,11.7 70.6,11.7 72.3,17.3 74.9,15.1 77.5,17.3 77.8,16.2 						"/>
					</defs>
					<clipPath id="SVGID_34_">
						<use xlink:href="#SVGID_33_"  style="overflow:visible;"/>
					</clipPath>
					<g class="st22">
						<path class="st17" d="M77.4,17.3L76,15.4l-0.6,0.2l-0.7-2.3l1.4,1.9l1.7,0.9l-0.1,0.1l-1.5-0.8l1.2,1.7V17.3z M75.1,14.2
							l0.4,1.2l0.4-0.2L75.1,14.2z"/>
					</g>
				</g>
				<g>
					<defs>
						<polygon id="SVGID_35_" points="72.6,11.7 70.6,11.7 72.3,17.3 74.9,15.1 77.5,17.3 77.8,16.2 						"/>
					</defs>
					<clipPath id="SVGID_36_">
						<use xlink:href="#SVGID_35_"  style="overflow:visible;"/>
					</clipPath>
					<g class="st23">
						<polygon class="st17" points="74.1,15.7 73.6,14.1 73.9,12.9 74.1,13 73.7,14.1 74.2,15.7 						"/>
					</g>
				</g>
				<g>
					<defs>
						<polygon id="SVGID_37_" points="72.6,11.7 70.6,11.7 72.3,17.3 74.9,15.1 77.5,17.3 77.8,16.2 						"/>
					</defs>
					<clipPath id="SVGID_38_">
						<use xlink:href="#SVGID_37_"  style="overflow:visible;"/>
					</clipPath>
					<g class="st24">
						<polygon class="st17" points="72,16 71.8,16 72.2,14.4 72.4,14.4 						"/>
					</g>
				</g>
			</g>
			<g>
				<polygon class="st17" points="80.5,18.7 65.9,6 66,5.8 80.7,18.5 				"/>
			</g>
			<g>
				<g>
					<polygon id="SVGID_7_" class="st17" points="69,8.6 68,11.7 72.6,11.7 					"/>
				</g>
				<g>
					<defs>
						<polygon id="SVGID_39_" points="69,8.6 68,11.7 72.6,11.7 						"/>
					</defs>
					<clipPath id="SVGID_40_">
						<use xlink:href="#SVGID_39_"  style="overflow:visible;"/>
					</clipPath>
					<g class="st25">
						<polygon class="st17" points="68.1,11.8 68,11.7 69,11.1 68.5,9.3 69.5,10.3 68.9,8.6 69.1,8.5 69.9,10.8 68.8,9.8 69.1,11.1 
													"/>
					</g>
				</g>
				<g>
					<defs>
						<polygon id="SVGID_41_" points="69,8.6 68,11.7 72.6,11.7 						"/>
					</defs>
					<clipPath id="SVGID_42_">
						<use xlink:href="#SVGID_41_"  style="overflow:visible;"/>
					</clipPath>
					<g class="st26">
						<path class="st17" d="M71,11.9l-2.1-0.8l0.7-0.6l-0.2-0.1l0.2,0.1l0.1-1.1h0.2l-0.2,1.2l2.9,1.2l-0.1,0.1l-2.6-1.1L71,11.9z
							 M69.2,11.1l1.3,0.5l-0.8-0.9L69.2,11.1z"/>
					</g>
				</g>
				<g>
					<defs>
						<polygon id="SVGID_43_" points="69,8.6 68,11.7 72.6,11.7 						"/>
					</defs>
					<clipPath id="SVGID_44_">
						<use xlink:href="#SVGID_43_"  style="overflow:visible;"/>
					</clipPath>
					<g class="st27">
						<polygon class="st17" points="71.4,10.8 69.7,10.6 69.7,10.5 71.4,10.6 						"/>
					</g>
				</g>
				<g>
					<defs>
						<polygon id="SVGID_45_" points="69,8.6 68,11.7 72.6,11.7 						"/>
					</defs>
					<clipPath id="SVGID_46_">
						<use xlink:href="#SVGID_45_"  style="overflow:visible;"/>
					</clipPath>
					<g class="st28">
						<polygon class="st17" points="68.7,11.8 68.6,11.7 68.9,11.1 68.3,11 68.3,10.9 69.2,11 						"/>
					</g>
				</g>
			</g>
			<g>
				<path class="st17" d="M72.9,11.8H68l1-3.4L72.9,11.8z M68.1,11.7h4.3l-3.4-3L68.1,11.7z"/>
			</g>
		</g>
	</g>
</g>
</svg>
