<?xml version="1.0" encoding="utf-8"?>
<!-- Generator: Adobe Illustrator 22.1.0, SVG Export Plug-In . SVG Version: 6.00 Build 0)  -->
<svg version="1.1" id="Layer_1" xmlns="http://www.w3.org/2000/svg" xmlns:xlink="http://www.w3.org/1999/xlink" x="0px" y="0px"
	 viewBox="0 0 1000 1000" style="enable-background:new 0 0 1000 1000;" xml:space="preserve">
<style type="text/css">
	.st0{opacity:0.47;fill:#B3B3B3;}
	.st1{opacity:0.47;fill:#ADFFF5;}
	.st2{fill:#003D7A;}
</style>
<ellipse transform="matrix(0.6099 -0.7925 0.7925 0.6099 -8.0178 540.014)" class="st0" cx="544.5" cy="278.2" rx="244.9" ry="210.3"/>
<ellipse transform="matrix(0.6099 -0.7925 0.7925 0.6099 -17.7554 589.9147)" class="st1" cx="590.3" cy="313" rx="244.9" ry="260.6"/>
<g>
	<g>
		<path class="st2" d="M410.8,550.8c-62-47.7-105.7-119-116.4-202.6c-10.3-80.7,11.4-160.6,61.1-224.9C405.2,59,477,17.8,557.7,7.5
			c166.6-21.3,319.4,96.8,340.8,263.4l0,0c21.3,166.6-96.8,319.4-263.4,340.8C552.1,622.3,472.4,598.3,410.8,550.8z M728.5,138
			C684.6,104.2,628,87.1,568.9,94.7c-57.4,7.4-108.5,36.6-143.9,82.4c-35.4,45.8-50.8,102.6-43.5,160
			c7.4,57.4,36.6,108.5,82.4,143.9c0.1,0.1,0.2,0.2,0.4,0.3c45.7,35.2,102.4,50.5,159.6,43.2c118.5-15.2,202.5-123.9,187.4-242.4
			C803.7,222.7,772.6,171.9,728.5,138z"/>
	</g>
</g>
<g>
	<path class="st2" d="M395.1,472.2L71.9,881.8c0,0-41.4,53.2,6.6,91.3s89.9-14.6,89.9-14.6l324.5-408.6L395.1,472.2z"/>
</g>
</svg>
