<?xml version="1.0" encoding="utf-8"?>
<!-- Generator: Adobe Illustrator 22.1.0, SVG Export Plug-In . SVG Version: 6.00 Build 0)  -->
<svg version="1.1" xmlns="http://www.w3.org/2000/svg" xmlns:xlink="http://www.w3.org/1999/xlink" x="0px" y="0px"
	 viewBox="0 0 1000 1000" style="enable-background:new 0 0 1000 1000;" xml:space="preserve">
<style type="text/css">
	.st0{display:none;}
	.st1{display:inline;opacity:0.47;fill:#B3B3B3;}
	.st2{display:inline;opacity:0.47;fill:#ADFFF5;}
	.st3{display:inline;}
	.st4{fill:#003D7A;}
	.st5{opacity:0.47;fill:#B3B3B3;}
	.st6{opacity:0.47;fill:#CCCCCC;}
	.st7{fill:#DBDBDB;}
</style>
<g id="Layer_1" class="st0">
	
		<ellipse transform="matrix(0.6099 -0.7925 0.7925 0.6099 -8.0178 540.014)" class="st1" cx="544.5" cy="278.2" rx="244.9" ry="210.3"/>
	
		<ellipse transform="matrix(0.6099 -0.7925 0.7925 0.6099 -17.7554 589.9147)" class="st2" cx="590.3" cy="313" rx="244.9" ry="260.6"/>
	<g class="st3">
		<g>
			<path class="st4" d="M410.8,550.8c-62-47.7-105.7-119-116.4-202.6c-10.3-80.7,11.4-160.6,61.1-224.9C405.2,59,477,17.8,557.7,7.5
				c166.6-21.3,319.4,96.8,340.8,263.4l0,0c21.3,166.6-96.8,319.4-263.4,340.8C552.1,622.3,472.4,598.3,410.8,550.8z M728.5,138
				C684.6,104.2,628,87.1,568.9,94.7c-57.4,7.4-108.5,36.6-143.9,82.4c-35.4,45.8-50.8,102.6-43.5,160
				c7.4,57.4,36.6,108.5,82.4,143.9c0.1,0.1,0.2,0.2,0.4,0.3c45.7,35.2,102.4,50.5,159.6,43.2c118.5-15.2,202.5-123.9,187.4-242.4
				C803.7,222.7,772.6,171.9,728.5,138z"/>
		</g>
	</g>
	<g class="st3">
		<path class="st4" d="M395.1,472.2L71.9,881.8c0,0-41.4,53.2,6.6,91.3s89.9-14.6,89.9-14.6l324.5-408.6L395.1,472.2z"/>
	</g>
</g>
<g id="Layer_2">
	
		<ellipse transform="matrix(0.6099 -0.7925 0.7925 0.6099 -8.6437 539.6033)" class="st5" cx="543.8" cy="278.6" rx="246.2" ry="211.4"/>
	
		<ellipse transform="matrix(0.6099 -0.7925 0.7925 0.6099 -18.4323 589.7653)" class="st6" cx="589.8" cy="313.6" rx="246.2" ry="262"/>
	<g>
		<g>
			<path class="st7" d="M409.3,552.7C347,504.7,303,433,292.3,349.1c-10.4-81.1,11.4-161.4,61.4-226.1
				c50-64.7,122.2-106.1,203.3-116.4c167.4-21.4,321.1,97.3,342.6,264.8l0,0c21.4,167.4-97.3,321.1-264.8,342.6
				C551.4,624.5,471.3,600.4,409.3,552.7z M728.7,137.7c-44.1-33.9-101-51.1-160.4-43.5c-57.7,7.4-109.1,36.8-144.6,82.8
				c-35.6,46-51.1,103.1-43.7,160.8s36.8,109.1,82.8,144.6c0.1,0.1,0.2,0.2,0.4,0.3c46,35.4,102.9,50.8,160.5,43.4
				C742.7,510.9,827.2,401.6,812,282.5C804.3,222.8,773,171.8,728.7,137.7z"/>
		</g>
	</g>
	<g>
		<path class="st7" d="M393.6,473.6l-325,411.7c0,0-41.6,53.4,6.7,91.7c48.2,38.3,90.3-14.7,90.3-14.7l326.2-410.8L393.6,473.6z"/>
	</g>
</g>
</svg>
