<?xml version="1.0" encoding="utf-8"?>
<!-- Generator: Adobe Illustrator 22.1.0, SVG Export Plug-In . SVG Version: 6.00 Build 0)  -->
<svg version="1.1" xmlns="http://www.w3.org/2000/svg" xmlns:xlink="http://www.w3.org/1999/xlink" x="0px" y="0px"
	 viewBox="0 0 1000 1000" style="enable-background:new 0 0 1000 1000;" xml:space="preserve">
<style type="text/css">
	.st0{display:none;}
	.st1{display:inline;fill:#FFE682;stroke:#FFF136;stroke-miterlimit:10;}
	.st2{display:inline;fill:#FFE682;}
	.st3{display:inline;fill:#E10048;}
	.st4{fill:#DBDBDB;}
	.st5{fill:#FFFFFF;}
</style>
<g id="Layer_2" class="st0">
	<polygon class="st1" points="597.7,735.2 905.2,886.8 779.1,540.4 	"/>
	<ellipse class="st2" cx="491" cy="486.3" rx="478" ry="335.3"/>
	<path class="st3" d="M607.3,363.3c-32.1-18.1-78.2-2.1-116.1,36.2c-37.9-38.3-84-54.3-116.1-36.2c-42.4,24-49,101.4-4.2,166.3
		c35.3,51.3,80.4,87.4,120.4,87c39.9,0.4,86.2-35.7,120.4-87C655.3,464,649.8,387.3,607.3,363.3z"/>
</g>
<g id="Layer_3">
	<g>
		<ellipse class="st4" cx="491.1" cy="486.2" rx="477.9" ry="335.2"/>
	</g>
	<polygon class="st4" points="597.8,735.1 905.2,886.6 779.2,540.4 	"/>
	<path class="st5" d="M607.4,363.3c-32.1-18.1-78.2-2.1-116.1,36.2c-37.9-38.3-84-54.3-116.1-36.2c-42.4,24-49,101.4-4.2,166.3
		c35.3,51.3,80.4,87.3,120.4,87c39.9,0.4,86.1-35.7,120.4-87C655.4,464,649.9,387.3,607.4,363.3z"/>
</g>
</svg>
