<?xml version="1.0" encoding="utf-8"?>
<!-- Generator: Adobe Illustrator 23.0.1, SVG Export Plug-In . SVG Version: 6.00 Build 0)  -->
<svg version="1.1" id="Layer_1" xmlns="http://www.w3.org/2000/svg" xmlns:xlink="http://www.w3.org/1999/xlink" x="0px" y="0px"
	 viewBox="0 0 708 920.4" style="enable-background:new 0 0 708 920.4;" xml:space="preserve">
<style type="text/css">
	.st0{display:none;}
	.st1{display:inline;}
	.st2{fill:none;stroke:#FFFFFF;stroke-width:4;stroke-miterlimit:10;}
	.st3{display:inline;fill:none;stroke:#FFFFFF;stroke-width:2;stroke-miterlimit:10;}
	.st4{fill:#FFFFFF;stroke:#FFFFFF;stroke-miterlimit:10;}
</style>
<g class="st0">
	<title>grow_graphic</title>
	<g id="Layer_1_1_" class="st1">
		<path class="st2" d="M375.3,395.3V190.7C547.2,325.9,705.2,33.9,705.2,33.9S398.2-81.9,354,127.7C309.8-81.9,2.9,33.9,2.9,33.9
			s157.4,290.9,328.8,157.5v203.9c-56.7,3.3-107.6,19-146,43H13.1l128.1,480.1h416.1l128-480.2h-164
			C483,414.3,432,398.6,375.3,395.3z"/>
	</g>
</g>
<g id="Layer_3" class="st0">
	<path class="st3" d="M686.6,160.2L579.3,281.1l-99-31.1l-39.5-91.9l107.3-121c-44.4-2.7-89.5,14.3-121.3,50.1
		c-49.4,55.7-49.7,137.8-4.4,193.8L155.6,674.3c-43.9-8.7-90.8,8.8-117.6,48.2C2.4,775,16,846.5,68.6,882.1
		c52.5,35.6,124,22,159.6-30.6c28.1-41.4,25.4-94.5-2.6-132.6l264.7-390.2c55.5,19,119.5,4.3,160.9-42.3
		C683,250.7,694.5,203.9,686.6,160.2z M198.9,838l-75.7,27.2l-58.9-39.9l-2.7-80.4l74.8-32.7l65.4,44.4L198.9,838z"/>
</g>
<g id="Layer_4">
	<path class="st4" d="M488.1,703.7c-13.7,0-24.8,11.1-24.8,24.8s11.1,24.8,24.8,24.8c13.7,0,24.8-11.1,24.8-24.8
		S501.8,703.7,488.1,703.7z M488.1,747c-10.3,0-18.6-8.3-18.6-18.6s8.3-18.6,18.6-18.6c10.3,0,18.6,8.3,18.6,18.6
		S498.4,747,488.1,747z M649,786.9c-1.6-32.4-17.7-61.5-43.3-83.6c38.6-49.4,98.3-145.2,82.4-249.6
		c-11.4-74.7-59.5-141.4-142.8-198.3l40.8-71.9l-16.5-9.5l19.8-34.9l18.2,10.5L652.8,70L552.6,12.3l-45.2,79.6l19.4,11.2L507,137.9
		l-17.8-10.2L268.3,516.8l-19-10.9l-40.9,72l134.7,77.5l40.9-72l-18.8-10.8L483.1,365c9.1,8,73.7,67.8,73.3,146.7
		c-0.2,52.6-28.9,102.7-85.3,149c-21.5,1.1-42,5.3-60.5,12.1H143.5l-0.7,0.3c-0.3,0.1-26.9,14-13.9,53.3l0.7,2.1l202.2,5.3
		c-9.5,15.3-15.4,32.4-16.7,50.5H48.5c-17.3,0-31.3,14-31.3,31.3V877c0,17.3,14,31.3,31.3,31.3h588c17.3,0,31.3-14,31.3-31.3v-61.4
		C667.8,802.7,660.1,791.7,649,786.9z M516.6,88.4L554.2,22l89.5,51.4L606,139.8L516.6,88.4z M530.2,109.7l51.9,29.8L566,167.9
		L514.1,138L530.2,109.7z M374.9,586.9l-33.3,58.7l-124-71.3l33.3-58.7L374.9,586.9z M363.1,563.8l-86.2-49.6l213.9-376.8L577,187
		L363.1,563.8z M562.6,511.6C563,432.3,500,371.8,488,361l56.4-98.8C624.7,317.7,671,382.4,682,454.6
		c15.6,102-43.1,196.1-81.1,244.7c-24.1-19.2-55.7-32.5-91.1-37.1c-9.6-1.5-18.3-2.3-26.3-2.3c-0.6,0-1.2,0-1.9,0
		C535.2,613.9,562.4,564,562.6,511.6z M134.1,722.3c-8.9-29.7,7.5-41.4,10.9-43.4h250.8c-16.2,7.6-30.5,17.3-42.5,28.6
		c-7.1,6.1-13.7,12.7-18.9,20.1L134.1,722.3z M358,711.5c18.9-15.9,42-27.1,53.3-32l1.1-0.8l0.1-0.1c15.5-5.7,32.5-9.6,50.3-11.2
		l0,0l3.9-0.4c5-0.4,10.1-0.6,15.2-0.6c10,0,19.7,0.7,29.2,2.1c5.2,0.9,10.7,2,16.7,3.3c27.7,6.3,53.1,18.4,71.6,34.3l2.4,2.1
		l0.2-0.2c23.4,20.4,38.4,46.8,40.7,76.2H321.2C323.3,756.5,336.8,731.4,358,711.5z M661.6,876.9c0,13.8-11.3,25.1-25.1,25.1h-588
		c-13.8,0-25.1-11.3-25.1-25.1v-61.4c0-13.8,11.3-25.1,25.1-25.1h588c13.8,0,25.1,11.3,25.1,25.1V876.9z"/>
</g>
</svg>
