<?xml version="1.0" encoding="utf-8"?>
<!-- Generator: Adobe Illustrator 23.0.1, SVG Export Plug-In . SVG Version: 6.00 Build 0)  -->
<svg version="1.1" xmlns="http://www.w3.org/2000/svg" xmlns:xlink="http://www.w3.org/1999/xlink" x="0px" y="0px"
	 viewBox="0 0 512 512" style="enable-background:new 0 0 512 512;" xml:space="preserve">
<style type="text/css">
	.st0{display:none;}
	.st1{display:inline;}
	.st2{fill:#A7CF38;}
	.st3{fill:#173963;}
	.st4{fill:#FFFFFF;}
</style>
<g id="Capa_1" class="st0">
	<g class="st1">
		<g>
			<g>
				<path d="M196.5,221.4c8.1,0,14.7-6.6,14.7-14.7c0-3.2-1-6.2-2.8-8.6c-2.7-3.7-7-6.1-11.9-6.1s-9.3,2.4-11.9,6.1
					c-1.7,2.4-2.8,5.4-2.8,8.6C181.7,214.8,188.3,221.4,196.5,221.4z"/>
				<polygon points="228.6,188.6 228.6,176.3 228.6,174.4 226.8,174.5 214.4,174.5 214.5,188.7 				"/>
				<path d="M196.5,133.1c-40.6,0-73.5,33-73.5,73.5s33,73.5,73.5,73.5s73.5-33,73.5-73.5S237,133.1,196.5,133.1z M238.3,198.1v34.2
					c0,8.9-7.3,16.2-16.2,16.2h-51.3c-8.9,0-16.2-7.2-16.2-16.2v-34.2V181c0-8.9,7.2-16.2,16.2-16.2h51.3c8.9,0,16.2,7.2,16.2,16.2
					V198.1z"/>
				<path d="M219.3,206.6c0,12.6-10.3,22.9-22.9,22.9s-22.9-10.3-22.9-22.9c0-3,0.6-5.9,1.7-8.6h-12.5v34.2c0,4.4,3.6,8,8,8H222
					c4.4,0,8-3.6,8-8V198h-12.5C218.7,200.7,219.3,203.6,219.3,206.6z"/>
			</g>
		</g>
	</g>
	<g class="st1">
		<g>
			<path class="st2" d="M73.5,0C33,0,0,33,0,73.5S33,147,73.5,147S147,114,147,73.5C147.1,33,114.1,0,73.5,0z M106.4,56.7
				c0,0.7,0.1,1.5,0.1,2.2c0,22.4-17,48.2-48.2,48.2c-9.6,0-18.5-2.8-25.9-7.6c1.3,0.2,2.7,0.2,4,0.2c7.9,0,15.2-2.7,21-7.2
				c-7.4-0.1-13.7-5-15.8-11.8c1,0.2,2.1,0.3,3.2,0.3c1.5,0,3-0.2,4.5-0.6c-7.7-1.6-13.6-8.4-13.6-16.6c0-0.1,0-0.1,0-0.2
				c2.3,1.3,4.9,2,7.7,2.1c-4.5-3-7.5-8.2-7.5-14.1c0-3.1,0.8-6,2.3-8.5c8.3,10.2,20.8,17,34.9,17.7c-0.3-1.2-0.4-2.5-0.4-3.9
				c0-9.3,7.6-16.9,16.9-16.9c4.9,0,9.3,2.1,12.4,5.3c3.9-0.8,7.5-2.2,10.8-4.1c-1.3,4-3.9,7.3-7.5,9.4c3.4-0.4,6.7-1.3,9.7-2.7
				C112.5,51.4,109.7,54.3,106.4,56.7z"/>
		</g>
	</g>
	<g class="st1">
		<g>
			<path class="st3" d="M256,14c-32.8,0-59.5,26.7-59.5,59.5S223.2,133,256,133s59.5-26.7,59.5-59.5S288.8,14,256,14z M270.8,75.6
				h-9.7c0,15.5,0,34.5,0,34.5h-14.4c0,0,0-18.9,0-34.5h-6.8V63.4h6.8v-7.9c0-5.7,2.7-14.5,14.5-14.5h10.6v11.8c0,0-6.5,0-7.7,0
				s-3,0.6-3,3.3v7.2H272L270.8,75.6z"/>
		</g>
	</g>
	<g class="st1">
		<g>
			<g>
				<path d="M324.5,340.1c-4.2,0-6.1,2.3-7.1,3.9v-3.4h-7.9c0.1,2.2,0,23.7,0,23.7h7.9v-13.2c0-0.7,0-1.4,0.3-1.9
					c0.6-1.4,1.9-2.9,4-2.9c2.9,0,4,2.2,4,5.4v12.7h7.9l0,0v-13.6C333.5,343.5,329.6,340.1,324.5,340.1z M317.3,344.1L317.3,344.1
					L317.3,344.1L317.3,344.1z"/>
				<rect x="297.2" y="340.7" width="7.9" height="23.7"/>
				<path d="M315.5,298.2c-27,0-48.9,21.9-48.9,48.9s21.9,48.9,48.9,48.9s48.9-21.9,48.9-48.9S342.5,298.2,315.5,298.2z
					 M341.5,369.2c0,2.1-1.7,3.8-3.9,3.8h-44.5c-2.1,0-3.9-1.7-3.9-3.8v-45c0-2.1,1.7-3.8,3.9-3.8h44.5c2.1,0,3.9,1.7,3.9,3.8V369.2
					z"/>
				<path d="M301.2,329.3c-2.7,0-4.5,1.8-4.5,4.1c0,2.3,1.7,4.1,4.4,4.1h0.1c2.7,0,4.5-1.8,4.5-4.1
					C305.6,331,303.9,329.3,301.2,329.3z"/>
			</g>
		</g>
	</g>
</g>
<g id="facebook" class="st0">
	<g class="st1">
		<g>
			<path class="st4" d="M255.9,2C115.4,2,1,116.2,1,256.5S115.4,511,255.9,511s254.9-114.2,254.9-254.5S396.4,2,255.9,2z
				 M319.3,265.5h-41.6c0,66.3,0,147.6,0,147.6h-61.7c0,0,0-80.8,0-147.6h-29.1v-52.2h29.1v-33.8c0-24.4,11.6-62,62.1-62h45.4V168
				c0,0-27.8,0-33,0c-5.1,0-12.9,2.6-12.9,14.1v30.8h46.7L319.3,265.5z"/>
		</g>
	</g>
</g>
<g id="twitter">
	<g>
		<g>
			<path class="st4" d="M256.2,4C117.8,4,5,116.8,5,255.2s112.8,251.2,251.2,251.2s251.2-112.8,251.2-251.2
				C507.8,116.8,395,4,256.2,4z M368.7,197.8c0,2.4,0.3,5.1,0.3,7.5c0,76.6-58.1,164.8-164.8,164.8c-32.8,0-63.2-9.6-88.5-26
				c4.4,0.7,9.2,0.7,13.7,0.7c27,0,52-9.2,71.8-24.6c-25.3-0.3-46.8-17.1-54-40.3c3.4,0.7,7.2,1,10.9,1c5.1,0,10.3-0.7,15.4-2.1
				c-26.3-5.5-46.5-28.7-46.5-56.7c0-0.3,0-0.3,0-0.7c7.9,4.4,16.7,6.8,26.3,7.2c-15.4-10.3-25.6-28-25.6-48.2
				c0-10.6,2.7-20.5,7.9-29.1c28.4,34.9,71.1,58.1,119.3,60.5c-1-4.1-1.4-8.5-1.4-13.3c0-31.8,26-57.8,57.8-57.8
				c16.7,0,31.8,7.2,42.4,18.1c13.3-2.7,25.6-7.5,36.9-14c-4.4,13.7-13.3,25-25.6,32.1c11.6-1.4,22.9-4.4,33.2-9.2
				C389.5,179.7,380,189.6,368.7,197.8z"/>
		</g>
	</g>
</g>
<g id="Layer_4">
</g>
<g id="Layer_5">
</g>
</svg>
