<?xml version="1.0" encoding="utf-8"?>
<!-- Generator: Adobe Illustrator 22.1.0, SVG Export Plug-In . SVG Version: 6.00 Build 0)  -->
<svg version="1.1" xmlns="http://www.w3.org/2000/svg" xmlns:xlink="http://www.w3.org/1999/xlink" x="0px" y="0px"
	 viewBox="0 0 1000 1000" style="enable-background:new 0 0 1000 1000;" xml:space="preserve">
<style type="text/css">
	.st0{display:none;}
	.st1{display:inline;fill:#232323;}
	.st2{display:inline;fill:#E0FCFB;}
	.st3{display:inline;}
	.st4{fill:#DCD8D6;}
	.st5{fill:#5C5C5C;}
	.st6{fill:#DBDBDB;}
</style>
<g id="Layer_2" class="st0">
	<path class="st1" d="M978,683.8c0,9.8-21.9,17.8-49,17.8H67c-27.1,0-49-8-49-17.8V99.9c0-9.8,21.9-17.8,49-17.8h862
		c27.1,0,49,8,49,17.8V683.8z"/>
	<path class="st2" d="M918,590.2c0,7.3-19.2,13.2-42.9,13.2H120.9c-23.7,0-42.9-5.9-42.9-13.2V158.1c10.2,0,840-7.3,840,0V590.2z"/>
	<path class="st2" d="M918,634.8c0,6.5-19.2,11.7-42.9,11.7H120.9c-23.7,0-42.9-5.3-42.9-11.7V249.5c9.7,0,832.3,0,840,0V634.8z"/>
	<rect x="481.1" y="701.6" class="st1" width="33.9" height="130"/>
	<rect x="180.6" y="813.6" class="st1" width="597.4" height="24.1"/>
	<path class="st1" d="M343.2,848.6c0,6.8-5.7,12.4-12.6,12.4H108.1c-7,0-12.6-5.5-12.6-12.4V443.3c0-6.8,5.7-12.4,12.6-12.4h222.4
		c7,0,12.6,5.5,12.6,12.4V848.6z"/>
	<path class="st2" d="M327.7,780.8c0,5.2-5,9.5-11.1,9.5H122c-6.1,0-11.1-4.2-11.1-9.5V470c0-5.2,4.9-9.5,11.1-9.5h194.6
		c6.1,0,11.1,4.2,11.1,9.5V780.8z"/>
	<g class="st3">
		<path class="st4" d="M219.3,840.4c-9.9,0-18-7.9-18-17.7c0-9.8,8.1-17.7,18-17.7c9.9,0,18,7.9,18,17.7
			C237.3,832.5,229.2,840.4,219.3,840.4z M219.3,808.3c-8.1,0-14.7,6.5-14.7,14.4s6.6,14.4,14.7,14.4c8.1,0,14.7-6.5,14.7-14.4
			S227.4,808.3,219.3,808.3z"/>
	</g>
</g>
<g id="Layer_3">
	<path class="st5" d="M978,683.9c0,9.8-21.9,17.8-49,17.8H67c-27.1,0-49-8-49-17.8V100.1c0-9.8,21.9-17.8,49-17.8h862
		c27.1,0,49,8,49,17.8V683.9z"/>
	<g>
		<path class="st6" d="M918,590.3c0,7.3-19.2,13.2-42.9,13.2H120.9c-23.7,0-42.9-5.9-42.9-13.2V158.2c10.2,0,840-7.3,840,0V590.3z"
			/>
	</g>
	<g>
		<path class="st6" d="M918,634.9c0,6.5-19.2,11.7-42.9,11.7H120.9c-23.7,0-42.9-5.3-42.9-11.7V249.6c9.7,0,832.3,0,840,0V634.9z"/>
	</g>
	<rect x="481.1" y="701.7" class="st5" width="33.9" height="129.9"/>
	<rect x="180.6" y="813.7" class="st5" width="597.4" height="24.1"/>
	<path class="st5" d="M343.2,848.6c0,6.8-5.7,12.4-12.6,12.4H108.1c-7,0-12.6-5.5-12.6-12.4V443.4c0-6.8,5.7-12.4,12.6-12.4h222.4
		c7,0,12.6,5.5,12.6,12.4V848.6z"/>
	<g>
		<path class="st6" d="M327.7,780.9c0,5.2-5,9.5-11.1,9.5H122c-6.1,0-11.1-4.2-11.1-9.5V470.1c0-5.2,4.9-9.5,11.1-9.5h194.6
			c6.1,0,11.1,4.2,11.1,9.5V780.9z"/>
	</g>
	<g>
		<path class="st4" d="M218.4,837.1c-9.9,0-17.9-7.9-17.9-17.6c0-9.7,8-17.6,17.9-17.6c9.9,0,17.9,7.9,17.9,17.6
			C236.3,829.2,228.3,837.1,218.4,837.1z M218.4,805.1c-8.1,0-14.7,6.4-14.7,14.4s6.6,14.4,14.7,14.4c8.1,0,14.6-6.4,14.6-14.4
			S226.5,805.1,218.4,805.1z"/>
	</g>
</g>
</svg>
