<?xml version="1.0" encoding="utf-8"?>
<!-- Generator: Adobe Illustrator 22.1.0, SVG Export Plug-In . SVG Version: 6.00 Build 0)  -->
<svg version="1.1" id="Layer_2" xmlns="http://www.w3.org/2000/svg" xmlns:xlink="http://www.w3.org/1999/xlink" x="0px" y="0px"
	 viewBox="0 0 1000 1000" style="enable-background:new 0 0 1000 1000;" xml:space="preserve">
<style type="text/css">
	.st0{fill:#232323;}
	.st1{fill:#E0FCFB;}
	.st2{fill:#DCD8D6;}
</style>
<path class="st0" d="M978,683.8c0,9.8-21.9,17.8-49,17.8H67c-27.1,0-49-8-49-17.8V99.9c0-9.8,21.9-17.8,49-17.8h862
	c27.1,0,49,8,49,17.8V683.8z"/>
<path class="st1" d="M918,590.2c0,7.3-19.2,13.2-42.9,13.2H120.9c-23.7,0-42.9-5.9-42.9-13.2V158.1c10.2,0,840-7.3,840,0V590.2z"/>
<path class="st1" d="M918,634.8c0,6.5-19.2,11.7-42.9,11.7H120.9c-23.7,0-42.9-5.3-42.9-11.7V249.5c9.7,0,832.3,0,840,0V634.8z"/>
<rect x="481.1" y="701.6" class="st0" width="33.9" height="130"/>
<rect x="180.6" y="813.6" class="st0" width="597.4" height="24.1"/>
<path class="st0" d="M343.2,848.6c0,6.8-5.7,12.4-12.6,12.4H108.1c-7,0-12.6-5.5-12.6-12.4V443.3c0-6.8,5.7-12.4,12.6-12.4h222.4
	c7,0,12.6,5.5,12.6,12.4V848.6z"/>
<path class="st1" d="M327.7,780.8c0,5.2-5,9.5-11.1,9.5H122c-6.1,0-11.1-4.2-11.1-9.5V470c0-5.2,4.9-9.5,11.1-9.5h194.6
	c6.1,0,11.1,4.2,11.1,9.5V780.8z"/>
<g>
	<path class="st2" d="M219.3,840.4c-9.9,0-18-7.9-18-17.7c0-9.8,8.1-17.7,18-17.7c9.9,0,18,7.9,18,17.7
		C237.3,832.5,229.2,840.4,219.3,840.4z M219.3,808.3c-8.1,0-14.7,6.5-14.7,14.4s6.6,14.4,14.7,14.4c8.1,0,14.7-6.5,14.7-14.4
		S227.4,808.3,219.3,808.3z"/>
</g>
</svg>
