<?xml version="1.0" encoding="utf-8"?>
<!-- Generator: Adobe Illustrator 23.0.1, SVG Export Plug-In . SVG Version: 6.00 Build 0)  -->
<svg version="1.1" id="Layer_1" xmlns="http://www.w3.org/2000/svg" xmlns:xlink="http://www.w3.org/1999/xlink" x="0px" y="0px"
	 viewBox="0 0 708 920.4" style="enable-background:new 0 0 708 920.4;" xml:space="preserve">
<style type="text/css">
	.st0{display:none;}
	.st1{display:inline;fill:#141951;}
	.st2{display:inline;}
	.st3{fill:none;stroke:#FFFFFF;stroke-width:4;stroke-miterlimit:10;}
	.st4{fill:none;stroke:#FFFFFF;stroke-width:10;stroke-miterlimit:10;}
</style>
<g class="st0">
	<rect class="st1" width="708" height="937.9"/>
</g>
<g class="st0">
	<title>grow_graphic</title>
	<g id="Layer_1_1_" class="st2">
		<path class="st3" d="M375.3,395.3V190.7C547.2,325.9,705.2,33.9,705.2,33.9S398.2-81.9,354,127.7C309.8-81.9,2.9,33.9,2.9,33.9
			s157.4,290.9,328.8,157.5v203.9c-56.7,3.3-107.6,19-146,43H13.1l128.1,480.1h416.1l128-480.2h-164
			C483,414.3,432,398.6,375.3,395.3z"/>
	</g>
</g>
<g id="Layer_3">
	<path class="st4" d="M686.6,160.2L579.3,281.1l-99-31.1l-39.5-91.9l107.3-121c-44.4-2.7-89.5,14.3-121.3,50.1
		c-49.4,55.7-49.7,137.8-4.4,193.8L155.6,674.3c-43.9-8.7-90.8,8.8-117.6,48.2C2.4,775,16,846.5,68.6,882.1
		c52.5,35.6,124,22,159.6-30.6c28.1-41.4,25.4-94.5-2.6-132.6l264.7-390.2c55.5,19,119.5,4.3,160.9-42.3
		C683,250.7,694.5,203.9,686.6,160.2z M198.9,838l-75.7,27.2l-58.9-39.9l-2.7-80.4l74.8-32.7l65.4,44.4L198.9,838z"/>
</g>
</svg>
